<svg xmlns="http://www.w3.org/2000/svg" version="1.0" width="1200.000000pt" height="1200.000000pt" viewBox="0 0 1200.000000 1200.000000" preserveAspectRatio="xMidYMid meet">

<g transform="translate(0.000000,1200.000000) scale(0.100000,-0.100000)" fill="#161c26" stroke="none">
<path d="M10221 11401 c-13 -8 -10 -21 13 -83 26 -69 39 -104 117 -310 17 -46 40 -107 52 -137 l20 -53 -24 -20 c-13 -10 -44 -33 -69 -50 -68 -48 -330 -247 -374 -285 -42 -35 -56 -40 -56 -22 0 10 -60 182 -105 299 -7 19 -27 76 -45 125 -29 79 -59 155 -65 163 -2 2 -236 -105 -435 -200 -69 -32 -232 -109 -363 -170 -193 -90 -237 -114 -231 -127 8 -19 137 -374 204 -561 26 -74 60 -166 74 -205 14 -38 26 -71 26 -72 0 -1 -27 -21 -60 -44 -33 -23 -60 -44 -60 -46 0 -5 15 4 73 45 26 19 49 33 51 31 5 -5 66 -179 66 -187 0 -4 -18 -8 -40 -8 -86 -4 -170 -95 -170 -185 0 -39 5 -51 26 -68 83 -65 244 46 244 168 0 34 5 39 103 105 157 107 371 264 597 439 l204 159 12 -29 c7 -15 24 -58 37 -94 l24 -67 -42 -5 c-116 -13 -211 -151 -164 -238 8 -17 7 -23 -8 -35 -74 -57 -341 -244 -477 -335 -91 -60 -166 -112 -166 -115 0 -6 -4 -9 155 95 128 83 452 309 488 340 12 10 38 16 75 16 43 0 67 6 96 24 43 27 96 103 96 137 0 16 24 40 90 89 l89 66 31 -22 c118 -87 349 75 353 248 l2 54 162 106 c90 59 161 108 159 111 -3 2 -18 -5 -34 -17 -17 -12 -32 -21 -34 -21 -2 0 -2 35 0 77 3 42 -1 102 -8 132 -13 60 -58 150 -95 191 -14 15 -25 44 -29 75 -7 58 -51 156 -91 203 -52 62 -181 137 -333 194 -50 19 -114 71 -137 110 -7 13 -14 15 -24 9z m205 -241 c164 -39 281 -118 330 -223 13 -29 24 -57 24 -63 0 -7 -42 9 -92 35 -51 25 -124 60 -163 78 -83 38 -148 91 -175 144 -30 58 -36 56 76 29z m-704 -296 c4 -16 4 -30 0 -32 -4 -1 -59 -27 -122 -57 -63 -29 -118 -51 -122 -47 -4 4 -9 18 -12 32 -6 23 1 28 111 82 65 31 122 55 127 54 6 -1 13 -16 18 -32z m808 0 c195 -26 289 -75 340 -174 31 -60 53 -168 47 -227 -3 -28 -1 -53 4 -55 5 -2 -47 -40 -115 -85 l-124 -81 -27 66 c-15 37 -31 78 -35 92 -4 14 -17 49 -29 78 l-21 52 101 66 c55 37 98 69 95 71 -2 3 -45 -23 -95 -56 -50 -34 -94 -61 -98 -61 -5 0 -32 62 -60 138 l-52 137 22 17 c12 10 17 18 10 18 -6 0 -15 -4 -18 -10 -10 -16 -22 -11 -28 11 -5 19 -2 20 21 15 15 -4 43 -9 62 -12z m-79 -121 c9 -27 31 -86 48 -132 17 -46 31 -87 31 -91 0 -3 -28 -26 -62 -50 -35 -24 -141 -102 -236 -174 -212 -161 -211 -160 -217 -154 -6 6 -96 248 -98 264 -3 20 499 401 511 389 3 -3 13 -26 23 -52z m-1001 -24 c0 -9 -14 -22 -32 -30 -18 -7 -98 -44 -178 -82 -134 -63 -145 -67 -157 -51 -7 10 -13 23 -13 30 0 6 41 31 92 55 51 24 131 63 178 85 76 38 86 40 98 26 6 -9 12 -23 12 -33z m309 -37 c-12 -9 -63 -49 -112 -90 -49 -41 -93 -70 -97 -66 -4 5 -11 24 -15 42 l-7 33 124 58 c67 33 125 55 127 49 2 -5 -7 -17 -20 -26z m53 -69 c14 -38 37 -98 51 -135 l25 -68 -111 -89 c-62 -49 -115 -87 -118 -85 -14 8 -101 266 -93 274 35 32 208 170 214 170 4 0 18 -30 32 -67z m-756 -59 c4 -14 3 -29 -2 -33 -21 -18 -303 -143 -312 -137 -5 3 -12 15 -15 27 -5 18 12 29 146 94 84 40 158 74 164 74 7 1 16 -11 19 -25z m460 -11 c8 -22 12 -43 7 -50 -17 -24 -314 -265 -320 -259 -4 3 -21 45 -39 92 l-32 86 52 23 c28 13 107 50 176 84 69 33 128 61 132 61 4 0 15 -17 24 -37z m1041 -84 c6 -19 20 -56 31 -84 l20 -50 -57 -1 c-99 -1 -199 -74 -249 -183 -21 -45 -24 -64 -19 -118 l5 -64 -79 -59 c-43 -33 -80 -60 -82 -60 -5 0 -31 65 -77 194 -26 72 -30 90 -19 97 8 4 48 34 89 66 41 33 127 97 190 144 63 47 138 101 165 122 28 20 55 35 60 33 6 -1 15 -18 22 -37z m-988 -65 c17 -47 31 -90 31 -95 0 -5 -14 -9 -30 -9 -91 0 -187 -104 -178 -194 3 -22 8 -48 11 -56 5 -10 -9 -27 -45 -53 l-53 -39 -16 39 c-8 21 -31 80 -49 132 l-33 95 33 25 c18 14 90 74 159 133 69 59 129 107 132 107 4 1 20 -38 38 -85z m-420 -98 l32 -90 -28 -23 c-15 -12 -53 -42 -83 -65 -30 -24 -82 -64 -114 -90 -33 -27 -63 -48 -66 -48 -4 0 -11 15 -17 33 -6 17 -27 77 -47 131 -20 55 -35 101 -33 102 12 13 313 150 318 145 3 -3 20 -46 38 -95z m794 -42 c26 -74 45 -138 43 -143 -3 -4 -56 -47 -118 -94 -62 -47 -178 -136 -258 -197 -149 -114 -509 -370 -523 -373 -9 -2 -81 182 -92 235 -5 20 -2 28 13 32 11 4 27 15 36 25 13 15 26 18 56 14 75 -10 153 49 194 148 9 22 37 52 71 78 46 35 61 41 85 36 87 -19 210 84 210 177 0 17 28 45 111 111 61 48 114 87 117 87 4 0 29 -61 55 -136z m-730 -137 c15 -41 27 -77 27 -80 0 -4 -11 -7 -25 -7 -34 0 -94 -26 -123 -53 -58 -53 -83 -157 -48 -196 15 -17 14 -19 -21 -44 -20 -15 -38 -25 -40 -23 -2 2 -24 59 -48 127 -43 116 -45 125 -28 136 10 7 74 57 143 112 69 55 127 100 130 100 3 1 18 -32 33 -72z" fill="#161c26"/>
<path d="M10239 11052 c-165 -116 -431 -323 -424 -331 3 -2 26 14 52 36 27 22 123 96 214 164 91 68 179 134 195 146 49 37 21 25 -37 -15z" fill="#161c26"/>
<path d="M11145 10163 c-191 -116 -426 -277 -910 -624 -344 -247 -519 -367 -727 -498 -82 -51 -148 -95 -148 -98 0 -6 30 12 225 135 188 118 338 221 708 487 161 116 320 229 352 252 108 77 428 289 510 338 91 55 90 54 84 59 -2 2 -44 -21 -94 -51z" fill="#161c26"/>
<path d="M8510 9948 c0 -6 12 -31 26 -55 25 -43 25 -45 7 -58 -26 -21 -28 -19 -57 30 -15 25 -31 45 -36 45 -14 0 -13 -7 16 -63 23 -46 24 -52 9 -63 -24 -18 0 -66 29 -59 16 4 25 -2 39 -26 16 -30 17 -33 1 -50 -16 -17 -15 -20 1 -45 12 -19 20 -23 28 -15 17 17 22 14 48 -39 13 -27 27 -50 31 -50 18 0 15 21 -9 67 -23 43 -25 53 -14 67 22 26 36 19 60 -30 15 -32 25 -44 32 -37 7 7 2 27 -15 61 -21 42 -23 51 -11 56 19 7 19 27 1 51 -12 16 -16 17 -29 6 -14 -11 -19 -7 -36 27 -18 34 -18 41 -5 54 12 12 13 19 3 41 -13 30 -20 32 -36 16 -8 -8 -18 2 -38 35 -26 44 -45 59 -45 34z m100 -195 l22 -37 -23 -17 c-23 -17 -24 -17 -46 19 l-22 37 22 17 c12 10 23 18 24 18 0 0 11 -17 23 -37z" fill="#161c26"/>
<path d="M8758 9882 c-75 -58 -132 -107 -88 -76 83 59 190 137 190 140 0 11 -22 -3 -102 -64z" fill="#161c26"/>
<path d="M7880 9773 c0 -5 -20 -129 -45 -277 -25 -148 -45 -272 -45 -277 0 -4 -17 -1 -37 7 -31 13 -44 14 -78 4 -78 -23 -120 -93 -80 -133 13 -14 7 -20 -53 -53 -37 -20 -71 -39 -76 -42 -5 -3 -7 7 -4 21 4 22 1 27 -21 31 -143 27 -704 117 -708 113 -4 -5 -83 -458 -83 -480 0 -4 -9 -3 -19 3 -11 5 -23 10 -28 10 -4 -1 4 -7 18 -15 21 -12 25 -19 21 -50 -3 -29 -8 -35 -21 -30 -9 4 -29 9 -46 12 -16 3 -37 12 -45 19 -26 22 -193 124 -203 124 -6 0 30 -25 79 -56 49 -31 97 -61 107 -68 21 -13 22 -26 3 -26 -8 0 -24 -8 -37 -19 -22 -18 -24 -18 -76 6 -30 14 -56 23 -59 20 -3 -2 20 -14 50 -27 53 -21 54 -23 49 -54 -9 -55 45 -88 110 -69 29 9 38 5 108 -44 79 -55 187 -119 227 -134 42 -16 22 0 -40 31 -58 30 -233 144 -242 159 -2 3 7 19 20 34 20 24 27 26 45 17 11 -7 23 -9 26 -6 3 3 -7 11 -22 18 -26 12 -27 15 -20 62 3 28 8 53 11 55 2 3 20 -1 40 -8 20 -7 38 -10 41 -8 3 3 -14 11 -37 18 l-42 13 6 52 c10 83 1 79 149 80 79 1 164 8 211 17 44 9 81 16 82 14 1 -1 -3 -30 -9 -65 -8 -53 -13 -62 -26 -55 -9 4 -36 8 -61 8 -53 0 -107 -33 -116 -72 -7 -24 -9 -25 -68 -19 -40 3 -54 2 -41 -4 11 -5 36 -9 56 -9 21 -1 48 -10 63 -22 36 -28 109 -28 146 0 16 11 59 25 96 32 38 6 104 22 147 36 44 13 80 23 81 21 5 -5 -30 -207 -36 -214 -4 -3 -15 -1 -26 5 -12 6 -32 11 -47 11 -30 0 -105 -36 -105 -50 0 -16 -152 -12 -236 6 -42 8 -78 13 -81 11 -11 -11 142 -37 216 -37 74 0 81 -2 81 -20 0 -87 189 -76 207 12 3 18 14 33 27 37 12 5 68 23 126 42 223 71 576 267 1003 557 77 51 140 92 142 90 2 -2 8 -55 14 -118 7 -63 14 -126 17 -140 4 -23 -7 -32 -108 -97 -136 -86 -328 -203 -334 -203 -2 0 -25 -13 -51 -29 -27 -16 -92 -51 -145 -79 l-98 -50 0 28 c0 63 -84 89 -161 50 -45 -24 -56 -42 -72 -125 l-12 -59 -78 -24 c-43 -14 -80 -22 -84 -19 -9 9 18 105 33 118 8 6 14 17 14 23 -1 28 -51 -54 -61 -101 -12 -51 -13 -52 -58 -63 -25 -6 -111 -14 -191 -17 -141 -5 -220 5 -335 42 -18 6 -18 5 -3 -5 10 -6 52 -20 95 -31 93 -24 308 -26 416 -5 76 15 85 10 67 -38 -13 -34 -13 -107 0 -140 9 -24 7 -26 -27 -32 -33 -6 -223 0 -303 11 -20 2 -12 -2 20 -10 37 -10 101 -15 193 -14 l138 1 45 -63 c24 -35 44 -73 44 -86 0 -48 18 -20 29 45 25 147 10 127 124 163 171 53 387 150 602 272 l79 45 24 -19 c84 -66 262 38 262 154 0 32 5 36 143 122 132 82 208 136 150 106 -12 -6 -83 -50 -158 -97 -75 -47 -138 -84 -140 -82 -1 2 -8 55 -14 118 -7 63 -14 127 -17 141 -4 23 3 31 78 77 46 29 94 62 108 73 36 30 0 10 -100 -55 -47 -30 -86 -54 -87 -52 -2 1 -20 188 -26 260 -2 25 6 34 62 72 35 24 59 44 54 44 -4 0 -32 -16 -61 -36 -30 -20 -55 -34 -57 -32 -2 2 -9 46 -16 98 -12 101 -13 105 -26 97 -8 -5 -6 -41 8 -187 l4 -35 -200 -133 c-453 -301 -762 -465 -1023 -542 l-63 -19 7 47 c24 170 29 186 54 199 14 7 75 36 135 65 61 28 143 71 183 95 55 32 83 43 115 43 l42 0 -27 -23 c-53 -44 -61 -85 -23 -122 18 -19 35 -25 70 -25 89 0 154 49 164 123 6 39 8 42 39 45 42 4 44 32 2 32 -30 0 -31 1 -24 38 9 50 11 52 45 52 16 0 29 5 29 10 0 6 -14 10 -31 10 -29 0 -31 2 -24 27 4 16 7 28 8 29 30 15 497 345 497 350 0 5 -173 -112 -374 -254 -65 -46 -120 -82 -121 -80 -2 2 2 37 10 78 7 41 18 109 25 150 6 41 13 82 16 91 2 8 74 66 159 129 86 62 158 117 161 122 3 5 -25 -13 -62 -40 -38 -27 -108 -76 -155 -110 -48 -34 -89 -62 -93 -62 -3 0 -5 8 -3 18 4 34 -18 22 -24 -13 -3 -19 -8 -37 -10 -38 -11 -9 -211 -149 -266 -186 -65 -43 -100 -61 -90 -45 4 8 97 539 97 558 0 3 -4 6 -10 6 -5 0 -10 -3 -10 -7z m254 -512 l-29 -161 -35 -25 c-33 -23 -45 -25 -153 -25 -97 0 -117 -3 -117 -15 0 -12 17 -15 92 -15 l92 0 -68 -41 c-37 -22 -82 -43 -100 -46 -19 -3 -36 -13 -42 -25 -5 -11 -47 -41 -94 -66 -87 -46 -261 -125 -265 -120 -1 2 7 60 18 131 l20 127 86 47 c59 32 96 46 116 44 61 -5 145 50 145 94 0 17 25 38 99 88 54 36 134 91 176 121 43 31 80 54 82 52 3 -2 -8 -77 -23 -165z m-374 -78 c0 -13 -98 -73 -117 -73 -10 0 -24 4 -32 9 -33 21 44 70 112 71 20 0 37 -3 37 -7z m-5 -33 c-3 -5 -16 -15 -28 -21 -21 -10 -21 -9 2 10 25 23 36 27 26 11z m-806 -101 c102 -17 188 -32 192 -35 4 -2 5 -12 2 -22 -4 -17 -9 -18 -74 -7 -38 7 -71 9 -73 6 -2 -3 -6 -22 -10 -43 l-7 -36 71 -12 c108 -18 103 -37 -20 -65 -69 -16 -322 -26 -334 -14 -3 3 4 59 14 124 11 66 20 123 20 128 0 11 22 9 219 -24z m1151 16 c0 -9 -9 -15 -22 -15 -22 1 -23 1 -4 15 25 19 26 19 26 0z m-13 -81 c-3 -20 -7 -38 -9 -39 -2 -2 -49 -5 -105 -7 -56 -1 -100 -2 -99 -1 1 2 29 20 62 42 48 32 68 40 108 40 l49 1 -6 -36z m-799 9 c61 -9 112 -19 112 -22 0 -8 -188 -87 -229 -96 -33 -7 -33 -6 -27 19 3 14 9 46 13 71 3 25 8 45 12 45 3 0 57 -7 119 -17z m127 -146 c-25 -147 -20 -139 -122 -170 -48 -14 -111 -30 -140 -35 l-52 -9 5 26 c26 147 35 186 46 192 6 4 34 15 62 24 28 8 87 33 131 54 44 21 82 34 83 29 2 -4 -4 -54 -13 -111z m1289 -159 l7 -93 -53 3 c-100 6 -198 -71 -202 -159 -3 -51 6 -45 -228 -164 -194 -99 -480 -214 -533 -215 -14 0 25 234 41 250 6 6 44 22 84 36 41 13 79 29 86 35 6 5 47 28 90 50 139 72 405 226 549 318 l140 88 6 -27 c3 -16 9 -70 13 -122z m-929 -328 c18 -7 18 -9 -9 -19 -33 -13 -39 -11 -30 13 7 18 10 18 39 6z m-85 -155 c-8 -52 -18 -95 -21 -95 -3 0 -31 27 -62 59 -58 61 -71 90 -39 92 9 0 40 9 67 19 28 9 55 18 60 19 7 1 5 -33 -5 -94z m-140 -24 c0 -5 18 -33 40 -62 22 -30 40 -59 40 -65 0 -6 -14 -14 -31 -16 -27 -4 -32 0 -50 33 -20 40 -26 119 -9 119 6 0 10 -4 10 -9z m100 -188 l0 -37 -30 29 c-16 16 -30 32 -30 37 0 4 14 8 30 8 28 0 30 -3 30 -37z" fill="#161c26"/>
<path d="M8809 9583 c-13 -16 -12 -17 4 -4 9 7 17 15 17 17 0 8 -8 3 -21 -13z" fill="#161c26"/>
<path d="M6411 9412 c-6 -37 -24 -146 -41 -242 -16 -96 -30 -176 -30 -177 0 -6 -82 25 -110 43 -47 28 -157 84 -167 84 -4 0 32 -22 81 -48 89 -48 115 -72 79 -72 -25 -1 -71 -43 -78 -73 -13 -51 76 -88 136 -57 15 9 34 0 106 -48 49 -33 115 -73 148 -91 70 -38 62 -31 -96 71 -103 67 -118 80 -110 95 27 46 26 46 83 14 30 -17 59 -31 64 -31 5 0 -19 16 -53 36 -34 19 -64 38 -66 42 -4 6 25 195 38 251 6 24 7 23 51 -20 80 -77 90 -115 50 -192 -13 -26 -19 -47 -15 -47 20 0 52 87 57 154 12 163 10 169 -46 250 -29 41 -52 84 -52 95 0 11 -4 22 -9 25 -4 3 -13 -25 -20 -62z m63 -95 c19 -23 40 -55 45 -70 13 -33 15 -87 4 -87 -17 1 -103 144 -103 172 0 39 13 35 54 -15z" fill="#161c26"/>
<path d="M5455 9298 c-148 -38 -271 -71 -272 -72 -1 -1 6 -51 16 -112 10 -60 21 -136 25 -169 l6 -60 -123 -129 -124 -129 -7 124 c-4 68 -8 125 -9 126 -4 3 -322 -79 -329 -86 -4 -3 2 -105 12 -226 11 -120 18 -220 17 -221 -1 -1 -24 -16 -51 -33 -59 -37 -51 -42 10 -6 l42 25 4 -30 c4 -27 2 -30 -24 -30 -75 0 -138 -82 -93 -120 24 -20 86 -5 113 26 21 24 23 36 21 95 l-4 67 60 44 c33 25 66 52 74 62 13 15 15 15 25 -6 14 -28 67 -36 104 -17 37 21 50 56 44 127 l-4 62 65 73 c149 164 176 192 180 187 8 -9 36 -193 31 -202 -3 -4 -14 -8 -25 -8 -52 0 -109 -63 -93 -104 7 -18 -266 -281 -351 -338 -39 -25 -102 -62 -140 -82 -39 -19 -64 -35 -57 -36 24 0 164 78 237 132 39 28 127 109 196 178 121 122 127 126 162 122 30 -3 42 1 68 27 30 30 31 34 25 94 -3 34 -12 101 -21 149 l-16 87 47 43 c26 24 61 53 80 65 37 26 36 27 49 -51 5 -33 4 -38 -10 -32 -38 14 -115 -43 -115 -86 0 -30 30 -50 64 -44 29 6 28 4 -24 -44 -30 -28 -50 -50 -43 -48 12 3 137 118 139 128 0 3 4 17 8 31 4 15 1 60 -7 104 -16 88 -23 77 88 134 33 16 54 30 46 31 -8 0 -43 -16 -78 -36 -36 -20 -66 -34 -68 -32 -2 2 -5 16 -7 32 -3 28 -1 29 86 53 93 26 138 24 102 -3 -16 -12 -17 -14 -4 -14 12 0 19 -14 25 -52 l8 -53 -40 -7 c-53 -10 -89 -50 -82 -92 4 -26 -1 -36 -31 -64 l-37 -34 41 31 c26 19 54 31 73 31 20 0 42 11 65 30 31 27 130 70 162 70 13 0 39 -124 32 -155 -2 -9 -32 -29 -69 -44 -163 -69 -258 -143 -539 -423 -259 -258 -389 -360 -430 -338 -29 16 -72 12 -108 -10 -40 -25 -39 -21 -60 -155 -15 -98 -19 -110 -38 -113 -34 -5 -84 60 -84 108 0 35 3 40 28 46 62 13 76 22 27 17 -46 -6 -49 -5 -36 11 8 9 11 19 8 23 -4 3 -12 -6 -18 -21 -11 -23 -18 -26 -59 -26 -49 0 -155 16 -180 28 -8 4 28 9 80 12 135 7 118 25 -20 21 l-111 -3 7 29 c4 15 9 31 11 36 2 4 51 7 109 7 84 0 106 3 110 15 4 8 12 15 18 15 19 0 118 31 114 35 -2 2 -37 -5 -78 -15 -41 -11 -88 -20 -103 -20 l-28 0 20 26 c26 33 27 56 4 77 -32 28 -65 29 -113 5 -31 -16 -48 -32 -55 -53 -5 -16 -10 -31 -11 -33 -4 -6 -68 30 -117 65 -42 31 -85 85 -227 281 -17 24 -30 50 -28 60 2 11 16 -2 41 -40 47 -71 185 -208 210 -208 10 0 26 -4 36 -10 34 -17 145 -29 201 -21 53 8 52 9 -35 10 -49 1 -107 6 -128 12 l-38 10 26 30 c14 17 25 35 25 40 0 25 -83 375 -91 384 -13 14 -12 6 30 -170 l37 -160 -30 -7 c-17 -3 -43 -21 -58 -39 l-28 -33 -53 54 c-29 30 -73 84 -99 120 l-46 65 14 70 c16 84 17 108 5 100 -5 -3 -13 -34 -16 -70 -4 -36 -11 -67 -15 -70 -4 -3 -20 13 -35 36 -48 68 -151 157 -223 191 -56 26 -82 32 -159 36 l-91 4 -32 90 c-18 49 -28 93 -24 98 9 8 175 70 187 70 18 0 4 -19 -23 -30 -18 -8 -30 -20 -30 -31 0 -21 16 -24 53 -10 23 9 27 7 41 -30 19 -48 19 -49 3 -49 -18 0 -57 -42 -57 -62 0 -9 7 -21 15 -28 12 -10 20 -9 40 4 47 31 48 46 9 147 -19 50 -32 95 -27 99 16 15 115 42 123 34 4 -5 12 -22 18 -39 6 -16 24 -66 40 -111 l30 -81 -29 -10 c-41 -16 -55 -93 -16 -93 23 0 67 40 67 60 0 16 -106 318 -116 329 -2 2 -84 -27 -184 -64 -166 -62 -180 -69 -174 -89 3 -11 22 -61 40 -110 19 -49 33 -90 32 -91 -2 -1 -30 -7 -63 -14 -33 -8 -80 -21 -105 -30 l-46 -18 -38 104 c-22 57 -40 103 -42 103 -2 0 -18 -7 -36 -15 -18 -7 -96 -37 -173 -66 -77 -28 -143 -54 -147 -58 -3 -3 16 -64 43 -135 27 -72 46 -133 42 -136 -36 -31 -376 -282 -388 -286 -8 -4 -15 -2 -15 2 -1 24 -38 286 -41 289 -2 2 -101 -17 -219 -41 -118 -24 -216 -44 -217 -44 -8 0 -1 -94 17 -236 27 -217 28 -204 -20 -204 -22 0 -39 -3 -38 -7 4 -16 -34 -75 -42 -67 -10 11 -31 97 -24 103 2 2 13 -4 24 -14 11 -10 23 -16 26 -12 3 3 -4 10 -15 16 -31 17 -40 42 -50 141 -9 84 -12 92 -42 118 -45 38 -52 41 -114 53 -43 8 -76 6 -146 -6 -51 -8 -94 -13 -96 -11 -3 3 -2 22 2 44 6 37 9 39 56 50 64 15 69 15 69 -1 0 -9 -9 -12 -28 -9 -37 5 -71 -30 -52 -53 27 -33 90 3 90 52 0 26 12 30 30 8 16 -19 40 -19 66 -1 16 11 24 35 33 101 16 104 9 123 -8 25 -12 -66 -14 -70 -40 -70 -14 0 -37 -7 -50 -16 l-23 -16 6 58 5 59 -12 -55 c-12 -52 -14 -54 -52 -62 -22 -4 -49 -10 -61 -13 -20 -4 -21 -4 -8 63 7 37 13 81 13 97 -1 17 -9 -12 -19 -63 -9 -51 -21 -97 -26 -101 -5 -5 -43 -21 -84 -36 -41 -15 -140 -60 -220 -100 -114 -58 -152 -72 -176 -68 -26 4 -35 0 -50 -22 -27 -40 -53 -64 -118 -113 -32 -24 -56 -46 -53 -48 3 -3 33 17 68 45 35 28 66 51 69 51 3 0 11 -13 17 -30 11 -29 11 -30 -73 -85 -81 -54 -105 -75 -86 -75 5 0 17 9 27 20 10 11 23 20 28 20 6 0 3 -8 -6 -18 -10 -10 -17 -30 -17 -45 0 -15 -10 -33 -25 -45 -14 -11 -25 -23 -25 -28 0 -4 11 3 25 16 l24 23 20 -24 c23 -29 23 -30 -34 -66 -25 -15 -45 -32 -45 -36 0 -4 26 9 58 31 l57 38 47 -16 48 -15 -75 -38 c-83 -43 -160 -96 -151 -104 3 -3 23 8 44 25 51 41 212 122 256 129 31 5 36 2 50 -25 36 -70 13 -109 -71 -125 -40 -8 -51 6 -17 22 34 15 29 52 -9 65 -35 13 -82 -19 -82 -55 0 -34 38 -51 104 -45 98 9 131 58 95 139 -13 29 -15 42 -7 44 7 3 27 16 46 31 30 24 33 30 25 60 -5 17 -13 32 -18 32 -6 0 -10 3 -10 8 0 7 81 45 85 39 1 -1 5 -19 8 -40 5 -33 3 -39 -21 -52 -44 -24 -12 -17 63 13 124 50 373 111 389 95 2 -2 -1 -23 -6 -45 -5 -23 -7 -53 -6 -67 2 -16 9 4 17 48 l13 73 52 -6 c34 -3 44 -2 31 4 -11 5 -34 9 -52 9 l-31 1 13 55 c7 31 13 58 14 60 0 3 1 10 1 15 0 6 17 10 37 10 20 0 45 7 55 16 28 26 59 -1 74 -64 12 -54 7 -64 -17 -35 -17 19 -71 43 -96 42 -10 0 -2 -5 17 -11 63 -18 96 -51 107 -107 6 -28 8 -51 6 -51 -3 0 -18 11 -35 25 -16 14 -34 25 -40 25 -6 0 8 -14 30 -30 23 -17 42 -33 42 -38 1 -4 7 -80 14 -168 11 -138 16 -166 35 -193 33 -46 70 -61 143 -60 l63 2 -70 6 c-106 10 -139 40 -152 140 l-6 46 29 -27 c52 -48 100 -57 194 -37 72 15 58 20 -21 7 -85 -15 -143 2 -176 51 -20 30 -32 101 -18 101 3 0 20 -10 36 -22 25 -19 42 -23 97 -22 37 1 78 7 92 13 21 9 19 10 -15 4 -22 -4 -64 -7 -94 -6 -73 1 -102 24 -118 94 -6 29 -10 55 -8 57 2 2 13 -5 25 -16 12 -11 37 -23 56 -27 39 -7 121 3 144 17 13 8 13 9 -1 5 -54 -17 -128 -18 -164 -3 -21 9 -36 19 -33 22 3 2 17 0 30 -7 20 -9 32 -8 57 5 17 9 31 21 31 26 0 6 15 17 33 25 31 15 31 15 5 11 -16 -2 -28 2 -28 8 0 6 -9 87 -21 180 -23 188 -25 180 49 191 24 4 50 9 57 12 10 3 15 -12 20 -54 3 -32 8 -68 11 -80 3 -17 0 -23 -13 -23 -10 0 -33 -9 -51 -20 -27 -16 -33 -26 -30 -48 2 -22 9 -28 35 -30 22 -2 38 3 54 19 23 23 23 18 3 235 l-7 71 69 16 c38 8 71 13 73 11 6 -6 19 -101 20 -144 1 -31 -2 -35 -25 -36 -35 -3 -64 -32 -64 -65 0 -35 28 -45 69 -24 41 21 46 46 31 166 -7 57 -9 104 -4 109 5 5 29 10 54 12 l45 3 12 -105 c6 -58 14 -120 17 -137 5 -32 3 -34 -110 -103 -63 -39 -114 -74 -114 -76 0 -7 103 51 171 97 l57 38 6 -37 c10 -64 8 -72 -19 -72 -25 0 -75 -39 -75 -59 0 -5 -29 -26 -65 -47 -83 -49 -78 -56 7 -10 46 26 67 33 75 25 19 -19 72 0 88 32 8 15 14 32 13 37 -2 5 56 51 127 102 72 51 140 102 152 113 13 11 25 18 29 15 3 -3 8 -31 11 -62 5 -48 3 -59 -13 -71 -61 -47 -345 -232 -431 -281 -56 -32 -100 -60 -98 -63 5 -5 213 114 295 168 75 50 190 130 220 154 l25 19 6 -29 c4 -15 7 -44 8 -64 1 -37 0 -37 -152 -136 -155 -101 -197 -126 -302 -183 -87 -46 -93 -59 -8 -16 88 44 220 123 357 215 l104 70 6 -37 c11 -70 9 -80 -19 -74 -52 10 -135 -52 -135 -101 -1 -23 -80 -74 -277 -178 -45 -24 -80 -45 -78 -47 5 -5 159 74 265 137 69 41 101 56 109 48 13 -13 75 -11 102 3 27 15 59 69 59 100 0 20 14 34 65 68 64 41 65 42 65 18 0 -14 -4 -36 -10 -50 -5 -14 -6 -26 -1 -26 5 0 14 20 21 44 9 34 9 55 0 97 -21 97 -16 107 80 164 89 53 260 135 280 135 8 0 10 -9 7 -22 -3 -13 -9 -44 -12 -69 -7 -46 -8 -46 -78 -80 -106 -50 -230 -119 -247 -136 -8 -9 14 1 50 21 91 52 250 129 256 123 3 -2 -8 -84 -24 -181 -16 -97 -25 -179 -20 -182 4 -3 8 -2 8 3 0 27 62 369 68 375 13 11 166 56 220 63 29 4 89 4 133 0 l80 -7 -20 -22 c-23 -25 -27 -56 -9 -74 7 -7 34 -12 61 -12 41 0 53 5 79 31 l31 30 53 -37 c30 -20 77 -65 106 -100 54 -67 66 -78 48 -44 -19 36 -127 144 -169 170 -22 14 -41 33 -41 43 0 22 47 42 65 27 26 -22 94 -117 165 -230 40 -63 90 -136 111 -161 32 -39 38 -51 31 -70 -9 -22 -10 -21 -37 21 -16 25 -46 73 -67 108 -22 34 -42 62 -45 62 -3 0 1 -10 9 -22 8 -13 28 -45 43 -73 16 -27 42 -70 58 -94 l30 -44 -13 -86 c-6 -47 -14 -96 -17 -108 -3 -13 -1 -23 5 -23 5 0 15 37 22 83 7 45 15 86 17 90 3 5 34 -19 68 -53 77 -73 153 -111 241 -118 62 -5 64 -6 72 -36 l8 -31 7 31 c6 30 8 31 74 37 122 10 281 74 418 167 89 61 145 109 330 284 167 157 256 235 330 288 60 43 186 111 193 104 4 -5 -23 -177 -34 -218 -3 -10 -1 -18 4 -18 8 0 16 36 48 217 5 28 13 34 63 52 31 11 49 20 40 20 -9 1 -35 -6 -58 -14 -42 -14 -42 -14 -35 8 3 12 7 23 8 24 1 1 46 5 99 9 53 4 97 11 97 17 0 6 -33 8 -93 3 -52 -3 -96 -4 -99 -1 -3 3 -3 17 0 30 4 25 6 25 103 25 54 0 101 4 104 10 4 6 -10 10 -34 10 l-40 0 22 35 c22 34 23 35 77 30 41 -3 47 -2 25 4 -16 5 -45 9 -62 10 -18 0 -33 6 -33 11 0 16 -51 31 -82 25 -16 -4 -41 -17 -56 -30 -15 -12 -43 -26 -62 -30 -55 -12 -172 -68 -257 -125 -102 -69 -175 -132 -368 -320 -283 -275 -390 -351 -592 -420 -49 -16 -81 -30 -72 -30 29 0 144 41 225 82 126 63 234 150 471 381 227 219 327 300 448 360 77 39 173 73 181 64 12 -12 -8 -47 -27 -47 -10 0 -19 -4 -19 -10 0 -5 9 -10 21 -10 15 0 19 -4 15 -16 -3 -9 -6 -22 -6 -30 0 -8 -9 -14 -20 -14 -11 0 -20 -4 -20 -10 0 -5 8 -10 19 -10 14 0 17 -6 13 -25 -3 -18 -23 -35 -80 -65 -153 -83 -209 -129 -549 -444 -70 -66 -163 -146 -206 -178 -145 -107 -365 -198 -480 -198 -36 0 -39 2 -34 23 3 12 15 81 27 152 30 189 25 175 58 163 52 -20 132 21 132 67 0 17 12 30 45 49 87 51 200 150 403 355 218 218 330 310 450 367 96 47 132 57 132 38 0 -8 -6 -14 -12 -13 -37 5 -63 -4 -89 -30 -32 -33 -37 -62 -13 -85 24 -25 60 -19 99 16 34 29 36 35 33 82 -3 46 -1 51 22 57 l25 7 -27 1 c-30 1 -32 5 -47 104 -7 47 -5 60 6 64 15 6 210 -3 258 -11 17 -3 8 1 -20 9 -29 9 -92 15 -151 15 l-102 0 -11 63 c-18 105 -20 101 52 93 34 -4 78 -9 97 -11 l35 -5 -30 10 c-16 6 -63 13 -102 17 -40 3 -73 9 -73 12 0 9 -20 133 -26 164 -3 15 -11 27 -17 26 -7 0 -133 -32 -282 -71z m295 -13 c0 -14 -83 -45 -122 -45 -37 0 -17 29 30 43 63 20 92 20 92 2z m-150 -39 c0 -9 -29 -21 -82 -36 -46 -12 -91 -24 -100 -26 -13 -4 -18 0 -18 13 0 16 16 23 83 40 101 26 117 27 117 9z m-218 -67 c-4 -3 -37 -13 -73 -22 -36 -9 -73 -19 -82 -23 -12 -4 -17 -1 -17 13 0 15 15 22 83 39 54 13 84 16 89 9 4 -5 4 -13 0 -16z m381 6 c5 -10 -4 -16 -31 -21 -20 -3 -52 -10 -70 -14 -28 -7 -33 -6 -30 8 2 10 21 20 53 28 69 16 72 16 78 -1z m22 -135 l6 -55 -65 -21 -66 -20 -5 30 c-3 17 -9 57 -14 89 l-8 57 36 9 c20 6 50 11 66 13 34 3 40 -9 50 -102z m-381 23 c5 -32 2 -40 -16 -53 -12 -8 -47 -36 -77 -62 -30 -26 -58 -45 -62 -42 -4 2 -10 32 -14 67 -4 34 -8 66 -8 71 -2 7 125 49 164 55 4 1 9 -16 13 -36z m-2374 -162 c0 -5 -15 -14 -32 -22 -43 -16 -41 -14 -28 -38 10 -20 12 -20 41 -5 35 18 33 19 46 -21 6 -16 14 -37 18 -47 5 -13 -12 -26 -83 -62 -49 -26 -119 -67 -157 -92 -37 -25 -71 -42 -75 -37 -15 16 -82 207 -73 211 116 45 321 120 331 121 6 1 12 -3 12 -8z m290 -110 c0 -5 3 -16 6 -25 4 -10 1 -16 -8 -16 -19 0 -55 -39 -60 -64 -2 -13 -20 -25 -53 -37 -69 -24 -69 -24 -82 24 -7 23 -14 49 -18 58 -4 12 1 18 17 22 13 3 57 15 98 26 87 23 100 24 100 12z m222 -20 c77 -30 167 -98 223 -168 88 -109 88 -143 1 -59 -97 94 -247 153 -368 144 -44 -3 -49 -1 -44 16 3 11 -2 35 -10 54 -7 19 -14 37 -14 40 0 13 161 -8 212 -27z m1423 -78 l7 -98 -100 -95 c-55 -52 -120 -109 -144 -127 l-45 -32 -15 182 c-8 100 -12 185 -9 189 7 7 256 76 282 77 14 1 18 -16 24 -96z m-1861 0 c5 -17 1 -24 -21 -35 -17 -8 -32 -25 -37 -43 -7 -24 -28 -41 -104 -85 -52 -30 -129 -79 -171 -108 -42 -29 -77 -48 -79 -42 -7 19 -22 10 -22 -12 -1 -15 -14 -32 -38 -49 -20 -14 -88 -63 -150 -107 -63 -45 -117 -82 -121 -82 -5 0 -11 24 -15 53 -5 43 -3 54 11 65 124 91 209 155 257 194 58 46 85 60 70 36 -10 -15 23 -37 47 -31 29 8 52 58 39 83 -10 18 -2 26 74 75 116 76 239 136 247 121 4 -6 10 -21 13 -33z m469 -44 c80 -27 119 -51 190 -118 38 -36 57 -62 57 -78 0 -29 -8 -29 -51 3 -98 74 -225 110 -347 99 -153 -13 -356 -93 -555 -219 -49 -31 -91 -56 -95 -56 -18 1 -73 63 -68 76 6 16 168 124 269 179 35 19 77 35 92 35 17 0 40 10 54 25 26 24 147 68 163 59 4 -3 16 0 25 5 33 19 198 13 266 -10z m1407 -96 c0 -24 -4 -28 -30 -28 -16 0 -30 1 -30 2 0 6 46 53 53 53 4 0 7 -12 7 -27z m-1364 -34 c68 -21 157 -71 182 -102 17 -20 7 -57 -15 -57 -9 0 -46 12 -82 28 -63 26 -73 27 -227 26 -143 -1 -166 -3 -200 -22 -21 -11 -83 -39 -136 -62 -54 -23 -141 -68 -195 -100 -92 -54 -99 -57 -106 -38 -4 11 -17 33 -28 50 -12 16 -19 31 -17 34 15 14 234 140 293 169 66 31 209 78 265 88 75 13 201 6 266 -14z m-1606 -72 c0 -9 -22 -19 -57 -27 -32 -7 -64 -15 -70 -17 -8 -3 -13 3 -13 15 0 17 10 22 53 30 75 14 87 14 87 -1z m1905 -111 c86 -128 181 -227 249 -257 52 -23 57 -34 21 -43 -14 -4 -23 -11 -19 -17 3 -6 12 -8 20 -5 18 7 22 -3 14 -39 l-6 -30 -65 65 c-36 36 -107 126 -157 200 -50 74 -100 145 -111 158 -21 24 -41 31 -21 7 10 -12 9 -15 -5 -15 -13 0 -16 5 -11 23 3 12 6 32 6 45 0 12 2 22 5 22 2 0 39 -51 80 -114z m-2579 68 c-3 -9 -6 -27 -6 -40 0 -21 -5 -24 -34 -24 -23 0 -39 -7 -49 -20 -7 -10 -49 -34 -93 -53 -43 -19 -115 -52 -159 -75 l-81 -40 -10 34 c-11 33 -10 34 30 57 119 66 363 174 400 177 4 0 5 -7 2 -16z m2334 -21 l55 -18 -62 -3 c-96 -5 -75 -22 25 -22 91 0 113 -8 105 -40 -4 -16 -22 -18 -206 -23 -200 -4 -239 -10 -339 -52 -14 -5 -18 -2 -18 13 0 41 10 52 37 41 53 -20 143 29 143 77 0 13 -6 26 -12 31 -43 27 186 24 272 -4z m-284 -15 c16 -26 -81 -70 -122 -54 -14 5 -14 9 -3 23 29 34 110 55 125 31z m-1749 -30 c45 -13 83 -61 83 -104 l0 -35 -24 18 c-14 10 -27 26 -29 36 -5 16 -15 17 -114 11 -178 -11 -305 -50 -577 -178 -65 -31 -122 -56 -127 -56 -18 0 -8 24 28 64 42 47 113 88 261 152 85 36 106 42 121 32 15 -9 24 -8 45 5 14 10 26 22 26 27 0 8 108 35 175 43 36 5 88 -1 132 -15z m2261 -36 c18 -26 61 -90 95 -142 34 -52 87 -120 118 -152 32 -32 53 -58 48 -58 -5 0 -9 -7 -9 -16 0 -11 6 -15 20 -11 15 4 20 0 20 -16 0 -12 -4 -28 -9 -35 -10 -17 -66 55 -165 210 -37 59 -99 141 -137 182 -64 68 -68 75 -47 79 13 2 25 5 28 5 3 1 20 -20 38 -46z m-58 -13 c0 -5 -7 -9 -15 -9 -8 0 -15 7 -15 15 0 9 6 12 15 9 8 -4 15 -10 15 -15z m-1056 -71 c46 -45 49 -49 34 -65 -15 -15 -19 -14 -50 12 -41 34 -56 57 -40 63 7 2 12 9 12 15 0 8 -4 7 -12 -1 -18 -18 -25 -15 -30 12 -7 36 26 22 86 -36z m-1235 -5 c-4 -21 -10 -54 -14 -73 -15 -93 -6 -85 -115 -103 -85 -14 -153 -33 -265 -73 -20 -7 -20 -6 -1 8 31 25 14 52 -29 45 -56 -9 -41 8 33 36 88 35 158 55 262 78 67 14 77 18 45 18 -49 1 -195 -37 -298 -78 -43 -17 -80 -31 -82 -31 -3 0 -5 14 -5 30 0 17 -5 30 -10 30 -7 0 -9 -13 -5 -33 6 -30 4 -34 -37 -53 -34 -17 -56 -20 -105 -16 -35 2 -63 8 -63 11 0 10 257 132 345 165 121 44 238 72 311 75 l42 1 -9 -37z m-659 -29 c0 -8 -16 -31 -35 -52 -29 -31 -36 -34 -45 -22 -20 30 -11 55 29 82 26 18 51 14 51 -8z m1845 -46 c31 -14 31 -21 0 -42 -33 -22 -35 -21 -35 19 0 39 0 39 35 23z m99 -27 c-9 -10 -26 18 -18 30 5 9 9 8 14 -7 4 -10 6 -21 4 -23z m-28 -19 c19 -15 44 -52 44 -65 0 -6 -124 -87 -133 -87 -4 0 -7 29 -7 64 0 59 2 66 28 85 33 25 41 25 68 3z m-1976 -70 c0 -9 -100 -65 -106 -59 -7 7 88 77 97 71 5 -3 9 -8 9 -12z m292 -54 l-22 -22 0 26 c0 28 18 42 35 27 6 -6 1 -18 -13 -31z m-313 9 c-26 -17 -34 -30 -34 -52 0 -40 -43 -72 -62 -47 -25 31 -14 50 50 86 70 40 97 48 46 13z m96 -17 c-3 -5 -10 -10 -16 -10 -5 0 -9 5 -9 10 0 6 7 10 16 10 8 0 12 -4 9 -10z m-40 -10 c3 -5 -8 -16 -24 -25 -42 -21 -48 -19 -21 10 25 27 35 30 45 15z m97 -7 c24 -21 23 -39 -4 -57 -31 -22 -37 -20 -52 16 -12 28 -12 34 3 45 22 17 31 16 53 -4z m3343 -49 c27 -8 77 -14 110 -14 l61 0 -2 -52 c0 -29 -4 -64 -8 -77 -7 -21 -12 -23 -54 -17 -49 7 -135 43 -183 76 -22 16 -29 29 -29 55 0 53 8 67 33 53 12 -6 44 -17 72 -24z m-3415 -4 c7 -17 10 -34 6 -37 -11 -11 -110 -15 -136 -5 l-25 10 27 12 c20 9 34 10 57 2 17 -6 31 -7 31 -3 0 5 -10 12 -22 15 l-23 6 25 15 c36 21 46 18 60 -15z m3402 -130 c31 -16 81 -33 112 -36 51 -6 55 -8 60 -38 3 -17 20 -51 36 -76 29 -43 29 -45 9 -48 -11 -2 -51 6 -89 17 -74 23 -150 74 -205 139 -29 33 -34 45 -29 71 6 30 8 31 28 16 11 -8 47 -28 78 -45z m208 -10 c9 -16 8 -20 -5 -20 -8 0 -15 9 -15 20 0 11 2 20 5 20 2 0 9 -9 15 -20z m54 -84 c9 -19 16 -44 16 -57 0 -22 -1 -22 -31 7 -27 25 -59 73 -59 88 0 9 35 12 47 4 6 -5 18 -24 27 -42z" fill="#161c26"/>
<path d="M3286 8601 c-23 -25 -120 -55 -154 -47 -20 5 -23 4 -12 -4 41 -27 166 10 184 55 7 20 3 19 -18 -4z" fill="#161c26"/>
<path d="M9150 9149 c-22 -18 -22 -19 -3 -10 12 6 25 16 28 21 9 15 3 12 -25 -11z" fill="#161c26"/>
<path d="M9062 9096 c-46 -33 -53 -43 -14 -20 19 10 38 25 44 32 15 17 8 14 -30 -12z" fill="#161c26"/>
<path d="M8968 9034 c-21 -13 -38 -27 -38 -30 0 -7 59 28 72 44 14 17 9 15 -34 -14z" fill="#161c26"/>
<path d="M9324 8924 c-18 -14 -18 -15 4 -4 12 6 22 13 22 15 0 8 -5 6 -26 -11z" fill="#161c26"/>
<path d="M6503 8870 c24 -15 126 -50 146 -50 9 1 -15 11 -54 24 -38 13 -79 27 -90 30 -18 7 -18 6 -2 -4z" fill="#161c26"/>
<path d="M9189 8839 l-24 -20 28 17 c15 9 27 18 27 20 0 8 -8 4 -31 -17z" fill="#161c26"/>
<path d="M5950 8829 c-40 -4 -25 -6 55 -6 107 -1 122 3 40 9 -22 2 -65 0 -95 -3z" fill="#161c26"/>
<path d="M6131 8816 c2 -2 22 -6 44 -9 28 -5 34 -4 20 3 -19 8 -73 14 -64 6z" fill="#161c26"/>
<path d="M9112 8796 c-18 -13 -36 -27 -40 -31 -11 -12 41 16 67 36 34 27 12 22 -27 -5z" fill="#161c26"/>
<path d="M6270 8776 c28 -17 50 -21 35 -7 -6 5 -21 12 -35 15 l-25 7 25 -15z" fill="#161c26"/>
<path d="M1502 8620 c0 -14 2 -19 5 -12 2 6 2 18 0 25 -3 6 -5 1 -5 -13z" fill="#161c26"/>
<path d="M6280 8630 c34 -11 60 -11 35 0 -11 5 -29 8 -40 8 -16 0 -15 -2 5 -8z" fill="#161c26"/>
<path d="M6715 8512 c13 -13 116 -54 122 -49 2 3 -9 9 -24 15 -15 5 -46 18 -68 27 -22 9 -35 12 -30 7z" fill="#161c26"/>
<path d="M6090 8471 c-19 -3 32 -6 115 -6 82 0 136 3 120 6 -38 8 -189 8 -235 0z" fill="#161c26"/>
<path d="M1651 8437 c23 -15 41 -41 56 -77 12 -30 23 -47 23 -37 0 46 -67 137 -102 137 -6 0 4 -10 23 -23z" fill="#161c26"/>
<path d="M6439 8432 c95 -35 161 -74 311 -182 113 -82 220 -150 235 -150 5 0 -22 19 -60 43 -39 24 -113 75 -165 113 -162 120 -284 185 -375 200 -16 3 8 -8 54 -24z" fill="#161c26"/>
<path d="M4470 8249 c-41 -15 -67 -28 -58 -28 20 -1 129 37 143 50 14 14 -2 9 -85 -22z" fill="#161c26"/>
<path d="M7005 8092 c13 -14 111 -52 133 -51 9 0 -10 10 -43 23 -33 13 -69 27 -80 31 -14 6 -17 5 -10 -3z" fill="#161c26"/>
<path d="M1955 8050 c-13 -6 -15 -9 -5 -9 8 0 22 4 30 9 18 12 2 12 -25 0z" fill="#161c26"/>
<path d="M2070 7970 c-8 -5 -10 -10 -5 -10 6 0 17 5 25 10 8 5 11 10 5 10 -5 0 -17 -5 -25 -10z" fill="#161c26"/>
<path d="M2040 7830 c-8 -5 -10 -10 -5 -10 6 0 17 5 25 10 8 5 11 10 5 10 -5 0 -17 -5 -25 -10z" fill="#161c26"/>
<path d="M2110 7730 c-8 -5 -10 -10 -5 -10 6 0 17 5 25 10 8 5 11 10 5 10 -5 0 -17 -5 -25 -10z" fill="#161c26"/>
<path d="M2140 7610 c-8 -5 -10 -10 -5 -10 6 0 17 5 25 10 8 5 11 10 5 10 -5 0 -17 -5 -25 -10z" fill="#161c26"/>
<path d="M2018 7563 c7 -3 16 -2 19 1 4 3 -2 6 -13 5 -11 0 -14 -3 -6 -6z" fill="#161c26"/>
<path d="M2635 5898 c-85 -36 -170 -65 -215 -73 -264 -47 -676 -170 -995 -298 -274 -109 -506 -235 -673 -364 -111 -85 -325 -313 -309 -329 3 -3 24 21 48 53 58 80 189 208 279 274 103 77 99 75 89 31 -19 -82 27 -235 105 -355 l43 -65 -67 -70 c-90 -93 -203 -242 -183 -242 5 0 27 29 51 64 23 35 79 103 124 151 l81 86 51 -49 c28 -26 75 -68 104 -91 28 -24 55 -54 58 -68 4 -13 1 -75 -6 -136 -11 -95 -17 -117 -40 -147 -47 -60 -103 -150 -98 -155 3 -3 28 31 57 74 29 44 56 83 60 86 5 2 11 -46 14 -108 8 -180 54 -294 163 -400 96 -94 272 -156 403 -142 l64 7 -20 -29 c-32 -46 -83 -142 -83 -155 0 -7 24 30 53 82 32 56 64 100 78 107 13 6 51 24 84 39 38 17 81 49 117 85 l57 58 103 -78 c109 -84 157 -134 182 -196 33 -78 11 -169 -55 -232 -39 -37 -101 -65 -123 -57 -21 8 -20 17 4 39 60 55 34 178 -45 211 -110 45 -203 -28 -193 -152 8 -99 81 -164 184 -164 75 0 150 35 210 98 55 57 77 103 82 173 8 102 -55 194 -216 317 -41 31 -81 62 -90 69 -15 13 -14 22 11 115 14 52 42 78 222 203 199 139 576 346 835 458 183 79 180 79 134 19 -278 -356 -340 -445 -424 -604 -163 -311 -196 -597 -84 -749 38 -52 135 -110 183 -108 21 0 19 3 -14 13 -104 33 -170 91 -199 173 -51 148 -9 398 108 633 84 168 175 300 415 603 l85 107 166 54 c219 72 230 74 263 44 l26 -23 -37 -62 c-20 -35 -39 -63 -43 -63 -10 0 -20 46 -13 64 4 11 1 16 -10 16 -9 0 -16 -4 -16 -10 0 -5 -14 -10 -31 -10 -62 0 -114 -97 -95 -175 4 -17 -1 -37 -18 -64 -23 -36 -24 -51 -4 -51 5 0 16 16 25 35 9 19 21 35 25 35 20 0 18 -31 -2 -57 -56 -71 -253 -352 -301 -429 l-53 -86 -14 42 c-38 113 -162 52 -162 -79 0 -52 2 -57 44 -95 l44 -41 -20 -39 c-61 -118 -112 -343 -107 -469 2 -52 0 -62 -17 -68 -18 -7 -18 -8 1 -8 16 -1 24 -12 32 -43 17 -62 66 -133 113 -164 22 -15 43 -24 46 -21 3 3 -7 12 -23 20 -53 28 -109 107 -126 178 l-7 26 123 7 c67 4 136 9 153 12 l31 6 -9 -64 c-5 -34 -7 -96 -4 -137 l6 -74 -43 7 c-23 4 -53 9 -67 12 -20 4 -22 3 -8 -5 9 -6 39 -14 68 -18 51 -8 52 -9 67 -52 24 -70 61 -120 112 -153 37 -22 48 -34 44 -49 -6 -23 25 -27 33 -4 5 11 17 13 52 9 76 -9 75 -9 43 -61 -22 -34 -26 -50 -18 -55 19 -12 23 -10 35 17 12 27 32 34 32 11 0 -25 81 -106 127 -126 25 -11 73 -23 106 -27 60 -8 60 -8 74 -50 8 -23 35 -65 59 -92 45 -50 88 -71 175 -86 29 -5 143 5 200 17 11 3 45 -109 122 -397 35 -130 62 -215 70 -215 10 0 455 204 463 213 3 3 -21 89 -33 117 -6 14 -39 126 -73 249 -34 123 -64 229 -66 236 -3 7 28 33 73 61 187 116 560 389 727 533 18 16 18 11 11 -196 -5 -153 -4 -213 4 -213 6 0 11 17 11 38 0 20 3 118 6 217 l6 180 32 33 c30 30 41 34 150 52 65 10 120 20 122 22 1 2 0 9 -4 15 -5 8 -27 7 -82 -3 -41 -7 -81 -13 -88 -13 -7 -1 16 24 52 54 35 30 73 55 83 55 10 0 25 5 33 10 12 8 12 12 2 18 -21 14 345 311 555 450 161 107 428 250 451 240 5 -1 -8 -91 -28 -198 -89 -478 -103 -560 -97 -567 15 -15 13 -26 86 377 17 91 38 206 47 257 l16 92 26 -17 c32 -21 117 -20 159 1 17 9 43 31 58 49 22 26 26 39 22 69 -4 35 -3 38 22 43 45 10 225 36 246 36 13 0 36 -24 70 -71 27 -39 84 -108 127 -154 43 -46 78 -85 78 -88 0 -2 -29 -53 -65 -113 -36 -59 -64 -112 -62 -118 4 -12 2 -11 190 -103 l159 -78 18 25 c34 45 112 181 107 186 -3 3 -22 -24 -42 -61 -41 -72 -41 -72 -118 -33 l-38 19 22 37 c13 20 29 47 37 60 8 12 12 25 9 28 -3 3 -23 -25 -45 -63 -69 -116 -61 -111 -123 -79 -30 16 -56 30 -58 32 -2 2 14 33 35 69 28 46 43 63 54 58 38 -15 72 -15 91 3 19 17 20 17 52 -13 21 -20 46 -33 72 -36 68 -9 127 -25 192 -51 35 -14 70 -26 79 -26 9 0 55 -13 102 -28 105 -35 307 -87 477 -122 86 -18 281 -13 396 10 100 20 259 68 259 78 0 2 -9 2 -20 -1 -17 -4 -20 0 -20 28 0 31 4 35 76 69 43 20 78 35 79 34 2 -2 6 -18 10 -36 7 -32 6 -33 -57 -61 -35 -16 -57 -30 -50 -30 7 -1 35 10 62 24 27 14 51 25 53 25 2 0 21 -65 42 -145 21 -80 42 -145 47 -145 5 0 7 8 4 18 -15 50 -75 276 -73 277 47 24 211 121 264 157 141 94 341 278 464 425 l34 41 75 -54 c174 -125 203 -145 212 -142 13 5 247 411 242 420 -3 4 -60 47 -127 94 -67 48 -124 89 -126 91 -2 1 15 43 37 92 23 49 56 124 73 167 17 43 38 88 46 100 7 12 15 37 17 55 3 19 20 94 40 168 20 73 36 146 36 161 0 25 3 28 33 26 28 -1 34 4 51 37 l18 38 -26 37 c-31 44 -210 222 -222 222 -5 -1 -31 -29 -59 -64 -27 -35 -88 -109 -134 -165 l-83 -103 32 -33 c31 -32 31 -34 19 -75 -12 -41 -13 -42 -48 -35 -96 17 -118 16 -157 -1 -21 -10 -50 -21 -64 -24 -20 -4 -1 -14 93 -49 64 -24 117 -48 117 -52 0 -21 -118 -254 -177 -349 -106 -173 -236 -345 -271 -357 -9 -4 -67 -30 -128 -58 l-112 -53 15 -55 16 -55 -38 -34 c-126 -111 -374 -275 -406 -270 -11 2 -19 -3 -19 -11 0 -18 -33 -33 -38 -18 -2 6 -11 11 -19 11 -9 0 -13 -6 -9 -15 7 -20 -32 -44 -149 -91 -134 -54 -205 -75 -210 -61 -2 7 -28 90 -58 184 l-55 173 102 51 c55 28 107 56 114 62 7 5 15 7 18 4 3 -3 20 -52 38 -110 l33 -104 -30 -9 c-68 -20 -91 -114 -28 -114 34 0 81 43 81 74 0 16 -87 311 -96 324 -3 4 -246 -117 -255 -126 -4 -4 22 -97 57 -207 35 -110 64 -206 64 -212 0 -7 -8 -13 -17 -14 -10 0 -36 -7 -58 -15 -22 -7 -30 -12 -17 -10 25 5 26 3 13 -22 -5 -9 -12 -24 -14 -33 -6 -18 -53 -26 -212 -35 -89 -5 -103 -3 -124 14 l-24 19 108 12 c118 13 218 31 211 38 -2 3 -48 -2 -103 -11 -54 -8 -130 -17 -169 -20 l-71 -6 -75 64 c-41 35 -84 75 -95 89 -55 70 -195 215 -244 253 -60 46 -187 114 -213 114 -8 0 -56 20 -107 45 -51 25 -98 45 -105 45 -7 0 -40 16 -74 35 -35 20 -84 43 -111 51 -26 9 -55 24 -64 34 -16 18 -14 22 31 71 l49 51 6 107 c3 58 9 114 13 124 16 33 -10 14 -73 -56 -36 -40 -94 -103 -129 -141 l-65 -70 -31 19 c-145 87 -407 165 -556 165 l-48 0 -12 85 c-11 79 -13 85 -34 80 -35 -9 -727 -105 -752 -105 -13 0 -25 -3 -27 -7 -3 -5 1 -44 8 -88 7 -44 12 -80 12 -81 -1 0 -24 -9 -52 -19 -115 -41 -236 -91 -324 -132 -65 -30 -97 -40 -101 -32 -4 6 -22 53 -40 105 -18 52 -35 94 -39 94 -4 0 -77 -40 -161 -88 -85 -48 -199 -112 -254 -142 -54 -30 -100 -60 -103 -66 -2 -5 12 -52 32 -103 20 -52 34 -99 31 -106 -7 -20 -613 -361 -623 -351 -2 2 5 19 15 37 202 360 296 608 305 802 3 51 3 76 1 57 -30 -265 -91 -435 -287 -798 l-61 -114 -86 -43 c-93 -47 -306 -145 -315 -145 -2 0 75 111 173 246 97 135 183 254 190 264 14 20 6 30 -77 97 l-23 19 37 63 c98 167 193 414 201 521 l4 55 -14 -66 c-25 -117 -75 -251 -152 -406 -42 -84 -79 -153 -84 -153 -10 0 -250 209 -250 219 0 4 14 29 31 57 18 27 55 92 83 145 l51 96 85 -73 c47 -40 89 -70 94 -67 5 3 -15 27 -45 52 -30 25 -69 60 -87 76 l-34 31 36 104 c20 57 40 127 44 155 l8 50 44 -3 c25 -1 73 -7 107 -13 62 -11 62 -11 72 -53 l10 -41 -2 38 c-2 20 -1 37 2 37 2 0 25 -12 50 -26 93 -54 149 -124 177 -224 11 -41 12 -42 13 -14 1 46 -54 148 -106 193 -24 22 -68 51 -95 65 -39 19 -58 37 -79 74 -33 58 -94 115 -155 144 -34 17 -52 35 -75 76 -36 64 -84 111 -154 152 -37 21 -56 41 -72 74 -30 62 -85 120 -152 161 -45 28 -61 45 -80 87 -29 63 -97 133 -171 175 -75 43 -206 82 -293 88 l-72 5 80 -15 c195 -36 325 -98 397 -186 36 -44 73 -109 63 -109 -3 0 -38 9 -77 20 -40 11 -82 20 -94 20 -12 0 -35 7 -50 15 -42 22 -104 19 -155 -8 -67 -36 -85 -69 -93 -178 -4 -52 -8 -94 -9 -96 -3 -2 -187 -43 -195 -43 -12 0 7 112 25 148 11 23 16 42 11 42 -15 0 -57 -103 -62 -149 -4 -49 -12 -56 -76 -66 l-45 -7 -34 146 c-19 80 -32 148 -29 151 7 7 273 44 333 47 50 1 50 1 8 5 -37 4 -226 -16 -319 -33 l-31 -6 -32 126 c-36 145 -37 163 -13 169 13 4 12 5 -5 6 -17 1 -23 9 -28 41 -4 22 -12 40 -18 39 -7 0 -75 -28 -152 -61z m189 -190 c14 -62 26 -118 26 -124 0 -5 -57 -23 -127 -38 -117 -26 -425 -110 -443 -121 -4 -3 -17 31 -27 74 l-20 79 201 87 c111 49 233 103 271 121 39 18 75 33 82 33 6 1 22 -46 37 -111z m-414 98 c0 -2 -52 -25 -115 -51 -63 -26 -115 -52 -115 -59 1 -6 16 -72 33 -146 l33 -134 -179 -68 c-280 -105 -486 -197 -659 -294 l-99 -56 -54 59 c-77 86 -204 170 -309 207 -17 6 -11 12 35 39 282 169 773 350 1279 473 144 35 150 36 150 30z m8854 -348 c-3 -4 -11 -8 -19 -8 -8 0 -16 -14 -19 -32 -24 -155 -30 -184 -38 -192 -5 -6 -8 -4 -8 6 0 8 -9 27 -21 42 -19 24 -20 31 -10 77 13 60 13 62 2 55 -5 -3 -12 -27 -16 -52 l-7 -47 -74 74 c-41 40 -74 78 -74 83 0 5 28 44 63 87 l62 78 82 -82 c45 -44 80 -84 77 -89z m-7559 116 c33 -8 66 -22 73 -31 7 -10 12 -48 12 -95 l0 -78 -137 -2 -138 -2 133 -3 c105 -3 132 -6 132 -18 0 -54 -111 -293 -193 -415 -118 -177 -145 -207 -205 -231 -360 -142 -855 -417 -1112 -618 l-65 -51 -7 61 c-13 110 -69 202 -161 264 l-49 33 85 56 c47 31 90 56 94 56 4 0 15 -13 24 -29 32 -56 129 -48 200 16 51 47 69 81 69 136 0 42 1 44 48 64 26 12 110 50 187 86 149 68 305 133 393 162 l54 17 40 -43 c40 -45 70 -99 66 -120 -2 -6 2 -13 9 -16 7 -3 14 19 18 64 4 37 10 90 14 118 l6 49 65 18 c36 10 119 32 185 48 66 16 99 27 73 24 -25 -3 -108 -20 -184 -39 -76 -19 -139 -33 -140 -32 -6 9 28 303 36 305 7 3 7 9 2 15 -5 7 -7 33 -4 60 4 45 14 59 27 37 3 -5 31 -10 61 -10 100 0 180 64 172 136 -5 39 -10 39 117 8z m-841 -31 c6 -24 56 -233 56 -239 0 -2 -14 -1 -30 3 -48 9 -114 -22 -163 -77 -39 -44 -56 -53 -202 -109 -87 -34 -162 -58 -165 -54 -12 13 -84 332 -77 339 15 16 511 150 564 153 6 1 14 -7 17 -16z m1043 -76 c41 -38 100 -123 92 -132 -2 -2 -31 3 -64 10 -33 7 -76 16 -96 19 l-37 7 0 84 0 84 30 -15 c17 -9 50 -34 75 -57z m7125 -205 c-13 -53 -26 -99 -28 -101 -2 -3 -17 8 -33 23 l-28 27 18 56 c21 62 23 77 11 69 -5 -3 -15 -30 -22 -61 -7 -30 -16 -55 -19 -54 -14 1 -52 61 -47 74 3 8 1 15 -4 15 -6 0 -10 -5 -10 -12 0 -9 -3 -9 -11 -1 -8 8 4 30 46 83 l58 71 47 -46 47 -46 -25 -97z m-8737 -46 c19 -81 35 -154 35 -161 0 -7 -39 -29 -87 -50 -125 -53 -431 -211 -543 -280 -52 -33 -132 -88 -177 -122 -46 -35 -85 -63 -88 -63 -3 0 -5 31 -5 68 0 86 -30 205 -76 302 l-35 74 23 18 c38 30 395 203 523 254 66 26 179 69 250 95 114 41 131 45 137 30 4 -9 23 -83 43 -165z m1693 98 c80 -30 135 -64 180 -113 33 -35 67 -89 60 -96 -2 -2 -47 4 -101 13 l-98 17 6 35 c3 19 1 55 -4 80 -8 42 -9 40 -10 -37 l-1 -83 -82 -2 -83 -2 80 -5 c89 -7 85 -2 64 -85 l-11 -39 -21 26 c-25 29 -40 34 -79 24 -49 -13 -85 -117 -64 -184 6 -18 -3 -23 -96 -47 -56 -16 -137 -41 -181 -57 -43 -16 -81 -29 -84 -29 -2 0 5 12 16 28 159 206 284 433 306 556 l8 38 64 -6 c35 -4 94 -18 131 -32z m7112 1 c22 -24 23 -28 11 -58 -7 -18 -17 -58 -22 -90 -12 -78 -16 -83 -48 -53 l-27 26 25 100 c14 55 28 100 32 100 3 0 16 -11 29 -25z m-7804 -22 c-3 -16 -8 -63 -12 -106 l-6 -77 -38 27 c-94 70 -153 139 -128 148 31 11 135 33 161 34 26 1 28 -2 23 -26z m-213 -34 c3 -12 1 -32 -4 -46 -19 -50 -11 -127 21 -189 16 -32 28 -59 27 -59 -1 -1 -38 -14 -82 -30 -114 -40 -341 -138 -473 -202 -62 -31 -115 -53 -119 -50 -3 4 -25 85 -48 181 l-42 175 46 20 c55 23 259 101 266 101 3 0 5 -16 5 -35 0 -99 133 -116 224 -29 34 33 70 109 63 135 -4 15 3 21 36 29 23 6 47 13 52 15 19 7 23 5 28 -16z m7826 -119 c-12 -36 -25 -69 -29 -73 -5 -6 -40 3 -68 18 -1 1 5 18 13 38 15 37 28 46 40 27 3 -5 12 -10 18 -10 7 1 2 9 -11 20 -21 18 -22 22 -12 61 l12 42 29 -29 29 -30 -21 -64z m-7739 -20 c51 -60 85 -109 79 -114 -2 -2 -18 -8 -36 -14 -31 -10 -34 -9 -64 29 -37 47 -62 123 -53 163 6 27 7 28 17 10 5 -10 31 -44 57 -74z m7584 72 c8 -13 -60 -42 -97 -42 l-32 1 40 24 c40 25 79 32 89 17z m212 -146 c-18 -50 -47 -126 -65 -168 -30 -72 -35 -78 -62 -78 -24 0 -33 -7 -46 -35 -14 -29 -15 -41 -6 -66 11 -28 8 -37 -35 -107 -37 -62 -122 -191 -139 -211 -2 -3 -9 1 -15 7 -36 36 -82 -11 -76 -77 3 -35 -3 -47 -42 -95 -25 -30 -48 -55 -51 -56 -4 0 -12 21 -18 47 -12 45 -12 47 22 82 120 128 325 444 386 595 22 52 25 55 51 49 22 -4 31 0 39 15 15 28 14 64 -3 87 -14 19 -14 19 30 144 3 11 12 7 34 -14 l29 -28 -33 -91z m-150 126 c9 -5 8 -17 -3 -45 -16 -40 -25 -41 -80 -13 -23 11 -22 12 19 39 46 30 48 30 64 19z m343 -73 c-11 -40 -22 -76 -25 -78 -8 -8 -54 54 -49 67 3 8 8 24 11 36 4 18 11 22 29 18 16 -3 28 2 36 17 7 11 14 19 16 17 1 -1 -7 -36 -18 -77z m-9993 -22 c27 -33 67 -114 62 -128 -2 -4 -39 -34 -83 -67 -72 -54 -81 -59 -93 -44 -33 43 -55 186 -38 240 5 13 22 30 39 37 40 17 78 4 113 -38z m3051 8 c23 -10 33 -21 34 -37 l2 -23 4 22 4 23 42 -21 c53 -27 123 -93 148 -141 l19 -37 -31 9 c-16 5 -61 12 -99 16 l-70 7 -2 61 -2 61 -3 -62 -4 -63 -37 0 c-20 0 -55 -3 -76 -7 l-40 -6 23 36 c15 25 18 37 10 43 -7 4 -16 -1 -23 -12 -44 -74 -79 -135 -98 -171 -12 -24 -24 -43 -27 -43 -4 0 -18 12 -34 25 l-28 25 26 40 c14 22 25 42 25 45 0 2 20 39 45 81 25 41 45 78 45 80 0 2 -7 4 -15 4 -8 0 -25 -20 -37 -45 -30 -62 -39 -56 -17 13 11 31 21 69 24 83 l4 25 78 -9 c43 -5 93 -15 110 -22z m6822 11 c18 -19 22 -31 16 -53 -12 -49 -95 -254 -137 -336 -38 -76 -40 -78 -58 -62 -19 17 -19 18 2 45 14 20 19 38 16 61 -4 23 8 63 43 145 26 62 56 138 65 169 10 30 21 55 24 55 4 0 17 -11 29 -24z m-197 -36 c6 0 6 -6 -2 -15 -7 -9 -10 -32 -7 -57 4 -38 -4 -59 -62 -173 -36 -71 -102 -184 -147 -251 -78 -117 -213 -293 -225 -294 -4 0 -12 20 -18 45 l-11 45 66 83 c104 129 206 289 288 453 42 83 76 157 76 164 0 7 7 10 16 6 9 -3 20 -6 26 -6z m252 -18 c2 -4 -6 -18 -20 -31 -27 -26 -29 -23 -12 14 11 25 23 32 32 17z m-8716 -174 l39 -163 -56 -6 c-31 -3 -65 -10 -76 -16 -36 -20 -86 -80 -100 -119 -11 -33 -28 -49 -115 -107 -95 -64 -104 -68 -132 -58 -80 28 -212 1 -287 -58 l-38 -30 -91 72 c-81 64 -92 76 -92 105 0 29 9 38 93 101 179 133 376 244 677 382 69 32 128 58 132 58 3 1 24 -72 46 -161z m882 86 l0 -36 -29 24 c-43 33 -42 35 22 47 4 0 7 -15 7 -35z m7813 -49 l21 -15 -24 -57 c-27 -67 -108 -245 -115 -251 -2 -2 -17 6 -33 19 l-29 24 32 65 c18 36 48 103 67 150 58 141 51 128 55 103 3 -13 14 -30 26 -38z m-9829 9 c22 -57 17 -294 -6 -294 -15 0 -136 127 -153 161 -16 30 -17 29 105 122 41 31 46 32 54 11z m3003 -69 c-7 -46 -61 -218 -77 -244 -9 -15 -15 -11 -123 86 l-37 33 45 78 c49 83 56 88 154 91 l44 1 -6 -45z m-296 -101 c26 -25 27 -28 13 -49 -20 -31 2 -46 23 -16 14 21 15 21 83 -36 38 -32 71 -65 75 -73 6 -15 -27 -85 -108 -221 l-51 -87 -128 111 c-108 93 -126 112 -110 118 29 11 61 57 68 98 7 46 31 94 67 134 15 17 27 34 27 39 0 14 13 9 41 -18z m6898 -104 l23 -20 -22 -42 c-25 -49 -178 -279 -212 -320 -21 -24 -25 -25 -42 -12 -19 13 -19 15 -2 33 10 11 19 36 21 56 2 20 10 44 18 53 23 25 98 140 137 210 19 34 40 61 45 61 6 0 21 -8 34 -19z m-4011 -45 l3 -30 -151 -3 c-128 -3 -150 -2 -150 11 0 15 49 27 200 46 89 12 95 10 98 -24z m4084 -8 c19 -16 25 -26 18 -36 -7 -12 -11 -12 -24 -2 -8 7 -24 10 -34 7 -34 -11 -56 -88 -31 -113 17 -17 1 -51 -30 -68 -29 -14 -41 -33 -41 -63 0 -18 -77 -132 -88 -132 -4 0 -19 10 -35 23 l-27 22 59 80 c33 44 91 131 127 193 37 61 70 112 73 112 3 -1 18 -11 33 -23z m-4402 -16 c0 -15 -20 -22 -142 -46 -79 -15 -177 -38 -218 -51 -41 -13 -78 -24 -81 -24 -5 0 -18 65 -14 71 0 0 99 15 220 33 121 18 223 34 228 35 4 0 7 -7 7 -18z m1194 -23 c3 -13 6 -49 6 -80 0 -46 -5 -62 -25 -85 l-24 -28 -1 76 c0 105 27 178 44 117z m3321 -43 l74 -55 -36 -63 c-20 -34 -38 -63 -39 -65 -3 -5 -129 89 -132 99 -2 5 1 9 6 9 12 0 34 52 31 71 -3 15 10 59 17 59 2 0 38 -25 79 -55z m-4190 33 c2 -7 6 -34 10 -60 l6 -48 -30 0 c-16 0 -79 -9 -138 -21 -59 -11 -112 -21 -117 -22 -6 -1 -15 33 -21 75 l-11 77 30 4 c17 2 84 5 149 5 86 2 119 -1 122 -10z m260 -24 c123 -25 281 -80 324 -113 23 -18 22 -18 -47 0 -111 28 -212 39 -362 39 l-139 0 -6 38 c-3 20 -8 45 -10 55 -3 16 3 17 58 12 34 -4 116 -18 182 -31z m-733 -41 l3 -38 81 3 82 3 4 -30 5 -31 -86 -26 c-95 -29 -279 -97 -322 -120 -27 -14 -29 -13 -33 8 -7 33 -26 164 -26 181 0 17 192 76 277 86 7 0 13 -15 15 -36z m1273 -107 c9 -54 -4 -59 -72 -29 l-61 27 51 60 52 59 12 -43 c7 -24 15 -57 18 -74z m-3825 14 c41 -36 92 -81 114 -101 l38 -36 -37 -56 c-21 -32 -40 -57 -42 -57 -2 0 -1 11 3 24 8 35 -20 94 -50 102 -39 9 -57 2 -89 -39 -26 -32 -31 -46 -31 -93 -1 -54 1 -58 41 -93 l41 -37 -21 -35 c-11 -19 -22 -35 -22 -37 -1 -1 -16 5 -34 15 -28 16 -33 17 -58 3 -33 -18 -73 -92 -73 -135 0 -16 8 -43 18 -59 18 -30 18 -30 -28 -122 -25 -51 -48 -93 -52 -93 -14 -2 -308 258 -298 264 5 3 10 1 10 -5 0 -20 15 -2 39 47 41 84 131 222 280 430 126 177 147 201 160 190 9 -7 50 -42 91 -77z m2249 -32 c7 -46 14 -94 17 -108 4 -23 -3 -29 -103 -78 -60 -30 -151 -78 -204 -108 -52 -30 -98 -54 -101 -54 -3 0 -13 21 -23 48 -9 26 -28 77 -43 115 -14 37 -23 69 -21 71 16 16 432 193 460 195 4 1 12 -36 18 -81z m1102 72 c57 -6 115 -13 129 -16 24 -7 24 -7 -7 -16 -22 -6 -35 -16 -39 -32 -6 -26 -36 -36 -108 -36 -39 0 -189 -23 -226 -35 -15 -5 -19 3 -25 47 -3 29 -9 61 -11 70 -4 13 3 18 33 21 76 8 153 7 254 -3z m-306 -22 c3 -13 6 -45 8 -72 2 -49 2 -50 -33 -59 -19 -5 -82 -24 -139 -43 -58 -19 -105 -33 -106 -31 -1 1 -7 40 -13 86 -9 63 -9 87 -1 92 6 4 59 14 118 24 58 9 113 18 121 20 34 6 40 4 45 -17z m4094 -40 c33 -24 61 -47 61 -51 0 -5 -18 -40 -41 -78 l-40 -69 -54 37 -53 37 19 25 c20 25 25 76 10 100 -12 19 6 54 24 47 7 -2 40 -24 74 -48z m211 41 c0 -10 -23 -51 -70 -129 -5 -8 -28 -48 -50 -88 -28 -50 -45 -71 -52 -64 -12 12 56 140 78 149 8 3 12 9 9 13 -6 10 64 130 76 130 5 0 9 -5 9 -11z m-9698 -36 c25 -21 61 -49 78 -63 l32 -25 -15 -45 c-23 -69 -29 -130 -18 -179 9 -41 8 -47 -17 -76 -15 -17 -38 -50 -52 -73 -14 -23 -28 -42 -31 -42 -4 0 -13 17 -22 38 -28 71 -41 147 -41 242 -1 94 20 260 33 260 3 0 27 -17 53 -37z m6007 1 c3 -3 -5 -14 -17 -26 -12 -13 -22 -17 -22 -11 0 7 -10 22 -22 34 l-23 21 40 -7 c22 -4 42 -9 44 -11z m-922 -56 l8 -53 -45 -5 c-26 -3 -59 -13 -74 -23 -35 -23 -67 -76 -64 -105 3 -20 -13 -31 -119 -86 l-121 -64 -11 81 c-7 45 -13 99 -14 120 l-2 38 70 30 c82 36 322 118 347 118 12 1 19 -12 25 -51z m967 27 c10 -8 22 -12 26 -10 5 3 25 -3 46 -12 29 -12 34 -18 21 -21 -10 -2 -23 0 -30 5 -7 5 -28 10 -47 11 -57 4 -73 11 -59 28 14 17 19 17 43 -1z m-1981 -52 c9 -25 16 -47 15 -48 -2 -1 -43 -23 -93 -50 -49 -26 -157 -86 -238 -133 -82 -46 -149 -83 -151 -81 -1 2 -10 23 -19 46 l-16 42 232 135 c128 75 237 136 242 136 6 0 18 -21 28 -47z m1739 2 c16 -14 39 -25 51 -26 55 -3 83 4 100 23 15 18 24 20 82 13 36 -3 67 -11 71 -16 3 -5 10 -7 15 -4 5 4 9 4 9 1 0 -3 -17 -17 -37 -31 -30 -20 -50 -25 -95 -25 -93 0 -264 -29 -393 -67 -180 -53 -161 -56 -170 23 -4 37 -9 73 -12 80 -6 16 179 49 296 53 43 1 58 -4 83 -24z m3092 9 c3 -9 6 -23 6 -33 0 -14 -121 -140 -187 -195 -22 -18 -22 -18 -33 24 l-12 43 69 69 c58 59 121 106 144 108 4 0 10 -7 13 -16z m-2691 -37 c18 -8 39 -22 47 -32 14 -17 13 -18 -30 -11 -42 7 -80 29 -80 48 0 12 26 10 63 -5z m2868 -106 c-32 -36 -68 -74 -79 -85 -21 -18 -21 -18 -27 10 -4 16 -9 37 -12 46 -3 12 16 41 53 82 l58 64 33 -25 33 -25 -59 -67z m-8539 72 c60 -33 95 -75 114 -139 21 -70 18 -104 -13 -136 l-26 -28 -46 37 c-46 37 -268 219 -285 235 -13 11 -6 16 61 44 71 30 122 26 195 -13z m4879 15 c0 -13 4 -49 8 -82 8 -63 9 -61 -51 -71 -21 -3 -51 -17 -68 -31 -17 -15 -67 -44 -112 -66 -97 -46 -243 -131 -348 -201 -83 -56 -382 -277 -501 -372 -197 -155 -254 -200 -394 -302 -423 -309 -809 -532 -1085 -626 -90 -31 -247 -63 -258 -53 -4 4 -7 69 -7 143 l0 135 95 34 c112 41 372 167 520 253 l105 60 12 -27 c11 -27 11 -27 -39 -34 -120 -15 -211 -169 -137 -230 40 -33 120 -19 172 30 61 58 70 105 37 211 -11 36 -18 65 -17 66 16 8 294 183 358 227 47 32 88 58 91 58 3 0 8 -10 11 -22 2 -13 8 -30 11 -39 6 -13 2 -16 -16 -12 -33 6 -107 -36 -141 -79 -21 -26 -31 -52 -35 -86 -4 -44 -2 -51 23 -70 15 -12 41 -22 57 -22 44 0 105 36 133 79 40 60 41 95 6 186 -17 44 -27 82 -23 86 9 8 453 319 560 393 77 54 85 57 101 42 24 -22 79 -20 119 4 39 24 72 75 72 112 0 23 10 32 63 61 141 79 181 97 191 87 17 -17 89 -11 122 9 17 10 41 35 53 55 20 32 33 39 129 70 170 54 182 56 183 24z m3358 10 c-2 -2 -27 -25 -55 -51 l-51 -49 -5 27 c-5 23 0 29 51 55 31 15 58 26 60 24 2 -2 2 -5 0 -6z m585 -28 c27 -19 61 -44 74 -56 l25 -20 -27 -47 c-16 -26 -30 -47 -32 -47 -4 0 -80 52 -136 94 -16 11 -28 23 -28 26 0 11 62 91 69 88 3 -2 28 -19 55 -38z m-3210 15 c4 -11 -2 -15 -27 -15 -30 1 -31 1 -13 15 25 19 32 19 40 0z m-3420 -201 c-1 -6 -34 -58 -75 -115 -40 -57 -74 -106 -75 -108 -7 -8 -223 193 -217 203 3 6 37 59 76 117 l71 107 110 -96 c61 -53 110 -101 110 -108z m3619 167 c4 -4 -6 -6 -22 -3 -16 2 -38 13 -47 23 -17 19 -17 19 22 3 21 -9 43 -19 47 -23z m2582 -32 c7 -35 5 -38 -84 -119 -119 -110 -117 -110 -132 -60 l-12 40 104 99 c64 60 107 94 111 87 3 -6 9 -27 13 -47z m-4830 29 c4 -13 23 -66 42 -118 35 -94 35 -94 15 -110 -39 -29 -437 -280 -447 -281 -5 0 -19 28 -31 63 -12 35 -33 94 -47 131 l-25 68 36 23 c85 53 433 246 444 246 4 0 10 -10 13 -22z m2106 -30 c16 -18 28 -36 29 -40 0 -5 -20 -8 -44 -8 -25 0 -92 -9 -149 -20 -78 -15 -112 -18 -132 -10 -69 26 -172 -6 -210 -67 -15 -23 -45 -42 -114 -74 -248 -113 -493 -280 -841 -570 -83 -69 -127 -99 -157 -106 -41 -10 -61 -2 -28 11 9 3 23 22 31 42 32 75 -29 127 -120 103 -82 -22 -126 -75 -126 -152 0 -42 -2 -46 -27 -49 -17 -2 -29 -10 -31 -20 -3 -15 2 -17 28 -12 l31 7 -3 -44 c-3 -40 -6 -44 -30 -47 -39 -5 -37 -32 2 -32 25 0 30 -4 30 -22 0 -24 -123 -126 -370 -310 -142 -106 -430 -298 -446 -298 -6 0 -17 21 -23 48 -7 26 -14 55 -17 65 -4 14 1 17 29 17 91 0 187 142 130 192 -33 29 -61 31 -109 8 -50 -25 -94 -81 -94 -120 0 -22 38 -167 56 -213 4 -11 -24 -31 -102 -73 -87 -46 -110 -55 -123 -46 -9 7 -27 17 -40 22 -48 21 -135 -28 -161 -91 -10 -23 -21 -30 -68 -40 -31 -6 -95 -9 -143 -7 -75 4 -94 8 -135 34 -49 30 -97 94 -109 145 -6 25 -4 27 43 33 362 48 896 359 1697 987 345 271 560 419 775 533 68 36 125 66 127 66 1 0 -3 -11 -9 -25 -10 -22 -8 -30 9 -53 59 -80 208 6 201 116 l-3 45 69 23 c174 59 413 96 570 88 75 -3 81 -5 107 -36z m2974 18 l30 -24 -68 -75 c-199 -223 -423 -404 -626 -506 l-61 -31 -10 26 c-6 15 -9 31 -8 35 2 5 48 36 102 69 83 51 101 58 108 45 14 -25 57 -18 90 15 24 25 29 37 25 59 -5 26 1 35 72 95 79 67 243 232 283 286 12 17 24 30 27 30 3 0 19 -11 36 -24z m-4550 -87 c19 -123 19 -122 -6 -114 -54 17 -159 -57 -159 -113 0 -22 -12 -35 -63 -69 -34 -23 -94 -64 -134 -92 l-71 -50 34 50 c19 28 34 62 34 76 0 13 -13 62 -29 108 -23 63 -27 86 -18 93 47 35 388 214 395 207 2 -1 10 -45 17 -96z m1696 61 l28 -30 -53 0 c-50 0 -56 3 -82 37 l-27 36 53 -6 c42 -5 59 -13 81 -37z m108 -14 c20 -18 35 -21 26 -6 -9 14 4 11 50 -10 36 -17 37 -19 14 -19 -14 -1 -29 2 -32 6 -4 3 -32 7 -62 8 -42 1 -61 7 -80 25 -14 13 -25 27 -25 31 0 12 89 -17 109 -35z m-6015 -131 l156 -129 -43 -46 c-24 -25 -62 -68 -85 -97 -36 -43 -50 -53 -93 -63 -73 -18 -168 -8 -234 24 -54 27 -135 106 -135 133 0 17 91 153 103 153 4 0 7 -6 7 -14 0 -24 80 -104 128 -127 71 -35 222 -30 222 7 0 11 -16 14 -71 14 -84 0 -117 16 -149 72 -19 33 -22 51 -18 112 3 75 20 112 43 98 6 -4 82 -65 169 -137z m8254 66 c7 -21 12 -40 12 -43 0 -2 -28 -27 -62 -55 -158 -127 -388 -265 -388 -233 0 4 -3 21 -6 37 -6 28 -2 32 53 63 96 54 250 164 328 233 22 20 43 36 46 37 3 0 11 -17 17 -39z m276 24 c4 -11 -2 -15 -22 -15 -26 1 -26 1 -8 15 24 18 23 18 30 0z m-2392 -75 c70 -76 78 -90 54 -90 -8 0 -23 -12 -33 -26 l-19 -26 -29 39 c-74 98 -137 174 -142 170 -2 -3 34 -53 81 -112 l87 -106 -18 -29 c-9 -17 -20 -30 -24 -30 -17 0 -202 212 -243 278 -7 11 12 13 105 10 l113 -4 68 -74z m2961 74 c7 -8 -42 -104 -53 -104 -19 0 -17 18 8 61 27 49 33 55 45 43z m-2918 -24 c32 -12 155 -131 236 -227 40 -48 79 -93 86 -99 11 -10 10 -17 -4 -43 -10 -17 -21 -31 -24 -31 -13 0 -209 211 -209 224 0 8 -11 23 -24 33 -13 10 -52 51 -86 90 l-62 73 34 -7 c18 -3 42 -9 53 -13z m112 -37 c121 -56 169 -97 378 -323 33 -36 82 -84 108 -108 26 -23 47 -45 47 -47 0 -3 -19 -4 -42 -3 -34 1 -56 12 -121 61 -72 55 -78 62 -62 73 10 8 22 11 26 8 19 -12 7 19 -16 42 -21 21 -32 25 -63 20 -36 -5 -38 -4 -112 85 -41 50 -106 120 -144 155 -38 35 -66 64 -62 64 3 0 31 -12 63 -27z m-788 -2 c10 -7 11 -13 2 -30 -17 -30 -66 -52 -132 -58 -49 -5 -60 -3 -65 11 -9 24 8 38 79 63 68 24 95 27 116 14z m2926 -20 c-4 -13 2 -25 20 -39 l26 -20 -66 -56 c-37 -31 -70 -56 -75 -56 -4 0 -12 17 -17 38 -9 36 -8 38 51 94 34 31 62 57 64 58 2 0 1 -9 -3 -19z m-6495 5 c0 -3 -4 -8 -10 -11 -5 -3 -10 -1 -10 4 0 6 5 11 10 11 6 0 10 -2 10 -4z m6329 -115 c-24 -20 -40 -24 -78 -22 -27 1 -64 -4 -82 -12 -39 -16 -99 -64 -99 -79 0 -6 15 3 34 20 35 31 71 45 140 57 35 6 38 5 27 -8 -16 -20 -134 -97 -148 -97 -6 0 -24 -11 -40 -24 -29 -25 -171 -106 -185 -106 -15 0 -8 51 7 56 8 4 15 14 15 23 0 10 18 27 43 41 68 38 237 153 307 209 l64 52 13 -43 c13 -42 13 -43 -18 -67z m-5869 61 l22 -18 -82 -112 c-81 -111 -82 -111 -104 -95 l-23 17 26 41 c54 84 126 185 132 185 4 0 17 -8 29 -18z m-384 -63 c46 -39 105 -90 130 -113 l46 -43 -60 -104 c-33 -57 -66 -116 -73 -130 l-14 -27 -122 105 -122 105 33 32 c38 35 59 97 50 144 -5 22 0 41 16 66 12 20 24 36 27 36 3 0 43 -32 89 -71z m1783 -21 c1 -5 -16 -8 -37 -8 -75 0 -162 -92 -162 -171 0 -68 71 -100 140 -64 17 9 30 14 30 11 0 -7 -371 -269 -375 -264 -4 7 -95 264 -95 270 0 8 120 89 330 221 l135 85 17 -37 c9 -20 17 -39 17 -43z m-3564 33 c-7 -23 -25 -29 -25 -8 0 14 21 39 28 33 2 -3 1 -14 -3 -25z m2953 -33 c44 -113 82 -221 80 -222 -2 -1 -21 -13 -43 -27 -125 -80 -160 -102 -261 -163 -62 -36 -116 -66 -121 -66 -5 0 -20 37 -32 83 -28 98 -53 181 -57 186 -1 1 -7 0 -12 -3 -6 -3 0 -37 14 -83 30 -98 57 -203 53 -207 -39 -30 -510 -268 -517 -261 -5 5 79 185 151 323 l64 124 129 67 c126 67 349 192 469 264 33 20 61 36 61 37 1 0 11 -24 22 -52z m5122 13 c0 -5 3 -23 6 -40 5 -25 3 -31 -11 -31 -9 0 -39 -22 -66 -49 -27 -27 -65 -59 -84 -70 l-35 -20 6 24 c4 15 1 32 -6 41 -8 9 -9 18 -4 23 19 17 123 91 129 91 3 0 14 9 25 20 21 21 40 26 40 11z m-2123 -26 c21 -10 38 -13 54 -7 21 8 35 -2 126 -97 56 -58 103 -109 103 -113 0 -22 -26 -16 -50 11 -16 17 -39 31 -52 31 -25 0 -120 77 -182 148 -42 47 -42 49 1 27z m-6001 -10 c9 -23 -21 -61 -88 -110 -100 -74 -97 -59 13 65 56 63 66 69 75 45z m6059 -93 c58 -55 84 -87 78 -93 -7 -7 -20 -2 -39 13 -16 13 -42 30 -58 37 -17 7 -48 26 -70 44 -23 17 -43 32 -44 33 -6 4 32 54 39 51 4 -1 46 -39 94 -85z m1547 -3 c4 -24 1 -32 -16 -39 -17 -6 -23 -3 -30 18 -7 20 -5 28 10 39 26 19 31 17 36 -18z m-1635 -11 c30 -22 40 -34 30 -36 -9 -2 -36 -38 -61 -80 -25 -42 -50 -83 -55 -90 -7 -11 -16 -10 -50 7 -22 12 -41 23 -41 26 0 8 122 205 127 205 3 0 25 -15 50 -32z m1547 -52 c-9 -7 -14 -17 -11 -23 7 -11 -136 -69 -249 -102 -39 -12 -73 -21 -75 -21 -2 0 -4 16 -5 35 l0 34 105 36 c58 20 138 51 176 69 l70 32 3 -24 c2 -14 -4 -29 -14 -36z m-6185 -96 c81 -69 120 -110 117 -120 -2 -8 -16 -49 -31 -90 -14 -41 -28 -81 -31 -88 -3 -9 -21 1 -56 33 -33 29 -55 42 -61 36 -9 -9 19 -39 88 -93 21 -16 22 -22 14 -48 -9 -24 -19 -31 -62 -40 -29 -7 -98 -15 -154 -17 l-101 -6 -7 44 c-13 91 25 286 87 446 31 80 32 81 53 65 12 -10 76 -64 144 -122z m6591 126 c0 -18 -68 -78 -83 -73 -22 7 -17 25 15 55 33 33 68 42 68 18z m-5880 -11 c14 -17 17 -11 -78 -142 -64 -91 -92 -119 -92 -96 0 8 85 165 116 215 26 42 35 45 54 23z m-334 -130 c74 -64 134 -120 134 -124 0 -5 -11 -34 -25 -65 -21 -48 -32 -60 -68 -75 l-42 -18 -89 76 c-48 42 -102 87 -118 101 l-30 25 48 98 c27 53 50 97 52 97 2 0 64 -52 138 -115z m4677 83 c135 -97 141 -103 114 -106 -33 -4 -88 20 -148 64 -43 31 -47 37 -36 55 15 25 17 25 70 -13z m1417 13 c0 -5 3 -22 6 -39 6 -30 4 -31 -71 -66 -43 -20 -80 -34 -82 -32 -3 2 5 7 17 11 14 4 19 12 16 22 -3 8 -6 19 -6 24 0 5 -10 9 -22 9 -15 0 4 14 52 39 82 42 90 45 90 32z m-182 -41 c4 -23 -11 -40 -35 -40 -8 0 -13 12 -13 29 0 45 42 54 48 11z m-1260 -34 c23 -16 42 -30 42 -32 0 -4 -59 13 -92 27 -27 11 -35 28 -22 42 7 7 8 6 72 -37z m1184 30 c4 -6 8 -20 8 -31 0 -16 -14 -25 -67 -44 -37 -14 -63 -26 -56 -28 6 -2 28 3 48 11 47 20 45 21 45 -10 0 -21 4 -24 20 -19 39 12 19 -14 -22 -29 -28 -10 -32 -14 -13 -10 55 11 60 10 63 -18 4 -30 3 -31 -113 -53 -110 -21 -255 -29 -350 -20 l-80 9 130 12 c123 11 322 50 311 61 -2 3 -45 -4 -94 -16 -150 -35 -380 -46 -468 -22 -22 6 -4 10 76 15 195 14 184 21 -36 21 -151 1 -227 5 -244 13 -23 11 -23 12 15 9 22 -2 49 -8 59 -12 13 -5 17 -5 13 2 -4 6 30 12 96 17 56 3 119 10 140 15 22 5 39 5 43 0 9 -16 59 -10 80 9 11 11 51 27 89 36 39 9 115 34 170 55 107 40 126 44 137 27z m-4429 -73 c16 -43 39 -105 52 -138 l23 -60 -156 -103 c-163 -107 -292 -186 -296 -180 -3 5 -67 229 -76 266 -8 31 -6 35 22 50 16 10 111 67 211 129 100 62 184 112 187 112 3 1 18 -34 33 -76z m-903 -185 c-48 -95 -96 -195 -105 -221 -19 -52 -36 -64 -146 -107 -61 -24 -190 -70 -197 -70 -2 0 3 11 11 24 14 20 14 26 2 36 -10 9 -17 5 -31 -20 -43 -71 -52 10 -14 128 17 55 27 72 41 72 10 0 26 12 36 28 67 105 76 111 251 192 92 42 181 84 197 93 17 9 33 16 36 17 4 0 -33 -78 -81 -172z m4410 161 c41 1 61 -4 80 -19 l25 -20 -35 6 c-19 3 -46 8 -60 11 -14 3 -47 7 -73 8 -26 1 -53 8 -60 15 -10 10 -4 11 28 5 22 -4 65 -7 95 -6z m1008 -11 c1 -7 5 -28 8 -45 4 -20 2 -33 -4 -33 -6 0 -17 -3 -25 -6 -10 -4 -16 4 -19 26 -4 25 0 34 16 41 20 9 20 9 -1 5 -13 -2 -23 0 -23 4 0 7 13 13 41 19 3 0 6 -5 7 -11z m-6044 -147 l98 -85 -98 -33 c-54 -18 -107 -33 -118 -33 -11 0 -32 12 -47 26 l-27 26 18 56 c30 97 51 142 64 135 6 -4 55 -45 110 -92z m4507 78 c27 -12 49 -28 49 -35 0 -20 -14 -18 -71 11 -27 14 -47 30 -44 35 8 13 9 13 66 -11z m-4230 -27 c-5 -10 -18 -25 -27 -33 -16 -13 -16 -12 0 19 9 17 21 32 27 32 6 0 6 -6 0 -18z m783 -124 c9 -29 29 -96 44 -148 l29 -95 -91 -53 c-193 -112 -415 -218 -560 -268 l-69 -24 7 54 c6 57 72 296 84 308 4 3 104 55 222 116 118 60 235 121 260 136 25 14 48 26 52 26 4 0 14 -24 22 -52z m-886 -18 c-13 -21 -29 -22 -35 -3 -4 10 11 17 40 22 4 0 2 -8 -5 -19z m-35 -30 l25 -20 -18 -47 c-10 -27 -23 -74 -31 -106 -7 -32 -17 -56 -23 -54 -13 4 -204 170 -205 178 -1 3 23 11 52 18 28 7 72 21 97 31 59 24 72 24 103 0z m-319 -26 c23 -9 20 -24 -4 -24 -11 0 -20 7 -20 15 0 17 2 18 24 9z m2566 -7 c0 -1 -26 -26 -58 -54 -46 -41 -69 -53 -106 -58 l-47 -7 3 43 3 44 80 16 c76 16 125 22 125 16z m-2509 -43 c8 -9 59 -56 115 -105 80 -69 101 -93 97 -109 -3 -10 -13 -22 -23 -25 -41 -13 -189 -35 -237 -35 l-53 0 0 94 c0 127 9 184 29 189 34 10 59 6 72 -9z m2339 -102 c0 -4 -9 -13 -20 -20 -17 -10 -20 -10 -20 2 0 8 8 17 18 19 9 3 18 5 20 6 1 0 2 -2 2 -7z m-1760 -101 c-16 -52 -34 -121 -40 -155 -18 -103 -21 -116 -31 -116 -5 0 -9 9 -9 21 0 30 -19 60 -63 99 l-40 36 17 32 c16 30 15 52 -2 52 -4 0 -16 -14 -26 -31 l-18 -31 -34 33 c-19 18 -31 36 -27 39 5 4 55 23 111 44 57 21 122 46 145 56 23 10 43 18 44 17 1 -2 -11 -45 -27 -96z m-231 -114 c1 -5 -24 -49 -54 -99 -30 -49 -55 -94 -55 -99 0 -5 -4 -9 -9 -9 -4 0 -11 21 -15 46 -12 91 -7 124 26 179 l32 54 37 -32 c21 -18 38 -36 38 -40z m-139 53 c0 -15 -23 -59 -82 -156 -56 -94 -61 -95 -132 -33 -31 27 -51 57 -65 95 -12 30 -21 58 -21 62 0 4 28 9 63 10 34 2 91 9 127 17 83 16 110 18 110 5z m180 -90 c0 -5 -4 -10 -10 -10 -5 0 -10 5 -10 10 0 6 5 10 10 10 6 0 10 -4 10 -10z m-187 -102 l5 -68 -32 0 c-59 0 -62 12 -21 79 21 34 39 60 40 59 1 -2 5 -33 8 -70z m313 -125 c-1 -54 3 -118 7 -142 l8 -44 -58 7 c-88 10 -154 47 -197 109 -39 57 -43 73 -22 100 13 17 15 15 21 -23 21 -125 147 -135 204 -17 12 24 21 55 21 68 0 21 7 39 15 39 1 0 1 -44 1 -97z m950 -284 c55 -186 74 -263 67 -269 -8 -7 -411 -200 -417 -200 -2 0 -11 30 -21 68 -9 37 -26 96 -36 131 -25 83 -25 86 15 87 56 1 111 44 133 104 19 50 23 53 119 105 54 29 103 52 108 51 6 -1 20 -36 32 -77z m114 -409 c0 -10 -40 -34 -108 -67 -59 -28 -153 -74 -210 -102 -81 -39 -104 -47 -107 -36 -3 8 -7 21 -9 28 -3 9 62 44 197 107 111 51 206 97 211 102 11 9 26 -9 26 -32z" fill="#161c26"/>
<path d="M3395 5350 c-19 -5 -6 -6 35 -3 36 3 67 7 69 9 8 7 -73 2 -104 -6z" fill="#161c26"/>
<path d="M3778 5113 c12 -2 32 -2 45 0 12 2 2 4 -23 4 -25 0 -35 -2 -22 -4z" fill="#161c26"/>
<path d="M3728 5103 c7 -3 16 -2 19 1 4 3 -2 6 -13 5 -11 0 -14 -3 -6 -6z" fill="#161c26"/>
<path d="M4013 4873 c9 -2 23 -2 30 0 6 3 -1 5 -18 5 -16 0 -22 -2 -12 -5z" fill="#161c26"/>
<path d="M9350 3509 c-58 -15 -94 -28 -80 -28 25 -1 210 45 219 54 9 10 -38 1 -139 -26z" fill="#161c26"/>
<path d="M2983 5883 c31 -2 83 -2 115 0 31 2 5 3 -58 3 -63 0 -89 -1 -57 -3z" fill="#161c26"/>
<path d="M4503 4720 c0 -30 2 -43 4 -27 2 15 2 39 0 55 -2 15 -4 2 -4 -28z" fill="#161c26"/>
</g>
</svg>