<?xml version="1.0"?>
<svg width="600" height="600" xmlns="http://www.w3.org/2000/svg" xmlns:svg="http://www.w3.org/2000/svg" enable-background="new 0 0 600 600" version="1.1" xml:space="preserve">
 <g class="layer">
  <title>Layer 1</title>
  <g id="objects">
   <g id="svg_2">
    <path d="m328.18,59.25l-32.12,6.28c-1.26,0.25 -2.18,1.52 -2.18,3.02l0,10.17l0,3.63l0,23.34c-0.97,-0.34 -2.01,-0.54 -3.1,-0.54c-5.16,0 -9.33,4.27 -9.33,9.56c0,5.29 4.17,9.56 9.33,9.56s9.33,-4.27 9.33,-9.56c0,-0.17 0,-0.32 -0.02,-0.44l0.02,0l0,-33.09l24.92,-4.85l0,22.09c-0.97,-0.34 -2.01,-0.54 -3.1,-0.54c-5.16,0 -9.36,4.27 -9.36,9.56c0,5.29 4.19,9.56 9.36,9.56s9.33,-4.27 9.33,-9.56c0,-0.17 -0.02,-0.32 -0.02,-0.44l0.02,0l0,-31.87l0,-3.63l0,-9.12c0,-1.91 -1.44,-3.31 -3.06,-3.02l0,-0.1l0,-0.02l-0.02,0.02z" fill="#DBDBDB" id="svg_3"/>
    <path d="m200.55,222.53l-43.98,8.58c-1.71,0.34 -2.98,2.11 -2.98,4.14l0,13.9l0,5l0,31.94c-1.33,-0.47 -2.77,-0.74 -4.26,-0.74c-7.06,0 -12.79,5.86 -12.79,13.11c0,7.23 5.73,13.09 12.79,13.09c7.06,0 12.79,-5.86 12.79,-13.09c0,-0.22 -0.02,-0.42 -0.02,-0.64l0.02,0l0,-45.32l34.11,-6.64l0,30.27c-1.33,-0.47 -2.77,-0.74 -4.26,-0.74c-7.06,0 -12.79,5.86 -12.79,13.11c0,7.23 5.73,13.09 12.79,13.09s12.79,-5.86 12.79,-13.09c0,-0.22 -0.02,-0.42 -0.02,-0.64l0.02,0l0,-43.66l0,-5l0,-12.5c0,-2.62 -1.99,-4.56 -4.17,-4.14l-0.05,0l0,0l0.02,-0.05z" fill="#DBDBDB" id="svg_4"/>
    <g id="svg_5">
     <path d="m410.8,529.5l-228.16,0c-4.67,0 -8.48,-4.44 -8.48,-9.93l0,-407.18c0,-5.49 3.81,-9.93 8.48,-9.93l228.16,0c4.67,0 8.48,4.44 8.48,9.93l0,407.18c0,5.49 -3.81,9.93 -8.48,9.93z" fill="#121320" id="svg_6"/>
     <circle cx="188.87" cy="120.23" fill="#D1D3E0" id="svg_7" r="5.2"/>
     <circle cx="404.54" cy="120.23" fill="#D1D3E0" id="svg_8" r="5.2"/>
     <circle cx="188.87" cy="514.6" fill="#D1D3E0" id="svg_9" r="5.2"/>
     <circle cx="404.54" cy="514.6" fill="#D1D3E0" id="svg_10" r="5.2"/>
     <circle cx="296.71" cy="212.08" fill="#D1D3E0" id="svg_11" r="49.96"/>
     <circle cx="296.71" cy="212.08" fill="#0B0D19" id="svg_12" r="42.23"/>
     <circle cx="296.71" cy="212.08" fill="#D1D3E0" id="svg_13" r="12.39"/>
     <circle cx="296.71" cy="399.19" fill="#D1D3E0" id="svg_14" r="64.35"/>
     <circle cx="296.71" cy="399.19" fill="#0B0D19" id="svg_15" r="56.36"/>
     <circle cx="297.18" cy="398.06" fill="#D1D3E0" id="svg_16" r="16.38"/>
    </g>
    <path d="m447.22,148.13l-44.67,8.7c-1.75,0.34 -3.06,2.13 -3.06,4.22l0,14.12l0,5.05l0,32.43c-1.35,-0.51 -2.79,-0.78 -4.31,-0.78c-7.18,0 -12.98,5.96 -12.98,13.29c0,7.35 5.8,13.29 12.98,13.29s12.98,-5.96 12.98,-13.29c0,-0.22 -0.02,-0.42 -0.02,-0.64l0.02,0l0,-46.04l34.65,-6.79l0,30.79c-1.35,-0.47 -2.79,-0.78 -4.31,-0.78c-7.18,0 -12.98,5.96 -12.98,13.31c0,7.35 5.83,13.29 12.98,13.29c7.15,0 12.98,-5.96 12.98,-13.29c0,-0.25 -0.02,-0.44 -0.02,-0.64l0.02,0l0,-44.34l0,-5.05l0,-12.72c0,-2.65 -2.01,-4.66 -4.26,-4.22l0,0.02l0,0.02l0,0.05z" fill="#26AB3C" id="svg_17"/>
    <path d="m195.05,314.13l-44.67,8.7c-1.75,0.34 -3.06,2.13 -3.06,4.22l0,14.12l0,5.05l0,32.43c-1.35,-0.51 -2.79,-0.78 -4.31,-0.78c-7.18,0 -12.98,5.96 -12.98,13.29c0,7.35 5.83,13.29 12.98,13.29s12.98,-5.96 12.98,-13.29c0,-0.22 -0.02,-0.42 -0.02,-0.64l0.02,0l0,-46.04l34.65,-6.74l0,30.74c-1.35,-0.47 -2.79,-0.78 -4.33,-0.78c-7.15,0 -12.98,5.96 -12.98,13.31c0,7.35 5.83,13.29 12.98,13.29s12.98,-5.96 12.98,-13.29c0,-0.25 -0.02,-0.44 -0.02,-0.64l0.02,0l0,-44.34l0,-5.05l0,-12.72c0,-2.65 -2.01,-4.66 -4.26,-4.22l0.02,0.02l0,0.02l0,0.05z" fill="#26AB3C" id="svg_18"/>
    <path d="m467,334.79l-53.03,10.34c-2.08,0.42 -3.62,2.5 -3.62,5l0,16.79l0,6.01l0,38.56c-1.59,-0.56 -3.36,-0.91 -5.12,-0.91c-8.5,0 -15.42,7.08 -15.42,15.81c0,8.7 6.92,15.81 15.42,15.81c8.5,0 15.42,-7.08 15.42,-15.81c0,-0.25 -0.02,-0.51 -0.02,-0.74l0.02,0l0,-54.69l41.14,-8.04l0,36.55c-1.59,-0.56 -3.36,-0.91 -5.16,-0.91c-8.5,0 -15.42,7.08 -15.42,15.81c0,8.75 6.92,15.81 15.42,15.81s15.42,-7.06 15.42,-15.81c0,-0.25 -0.02,-0.51 -0.02,-0.74l0.02,0l0,-52.68l0,-6.03l0,-15.08c0,-3.11 -2.39,-5.49 -5.04,-5.03l0,0.07l0,-0.02l0,-0.1z" fill="#26AB3C" id="svg_19"/>
    <path d="m524.41,199.68l-41.16,8.04c-1.63,0.32 -2.79,1.96 -2.79,3.87l0,13.02l0,4.68l0,29.93c-1.26,-0.44 -2.61,-0.71 -3.98,-0.71c-6.61,0 -11.98,5.49 -11.98,12.28c0,6.79 5.35,12.28 11.98,12.28s11.98,-5.49 11.98,-12.28c0,-0.22 -0.02,-0.37 -0.02,-0.56l0.02,0l0,-42.46l31.93,-6.25l0,28.36c-1.26,-0.44 -2.61,-0.71 -3.98,-0.71c-6.61,0 -11.98,5.49 -11.98,12.28c0,6.79 5.35,12.28 11.98,12.28c6.61,0 11.98,-5.49 11.98,-12.28c0,-0.22 -0.02,-0.42 -0.02,-0.56l0.02,0l0,-40.89l0,-4.68l0,-11.72c0,-2.45 -1.87,-4.27 -3.93,-3.87l-0.02,-0.02l0,0l-0.02,-0.02z" fill="#DBDBDB" id="svg_20"/>
    <path d="m118.31,420.88l-32.12,6.28c-1.26,0.25 -2.18,1.52 -2.18,3.02l0,10.17l0,3.63l0,23.34c-0.97,-0.34 -2.01,-0.56 -3.1,-0.56c-5.16,0 -9.33,4.27 -9.33,9.56c0,5.29 4.17,9.56 9.33,9.56s9.33,-4.27 9.33,-9.56c0,-0.17 -0.02,-0.32 -0.02,-0.47l0.02,0l0,-33.09l24.92,-4.85l0,22.09c-0.97,-0.34 -2.01,-0.56 -3.1,-0.56c-5.16,0 -9.33,4.27 -9.33,9.56c0,5.29 4.17,9.56 9.33,9.56c5.16,0 9.33,-4.27 9.33,-9.56c0,-0.17 -0.02,-0.32 -0.02,-0.47l0.02,0l0,-31.87l0,-3.63l0,-9.14c0,-1.91 -1.44,-3.31 -3.06,-3.02l0,0.07l0,-0.02l-0.02,-0.02z" fill="#DBDBDB" id="svg_21"/>
    <path d="m504.73,66.99l-32.12,6.28c-1.26,0.25 -2.18,1.52 -2.18,3.02l0,10.17l0,3.63l0,23.34c-0.97,-0.34 -2.01,-0.54 -3.1,-0.54c-5.16,0 -9.33,4.27 -9.33,9.56c0,5.29 4.17,9.56 9.33,9.56s9.33,-4.27 9.33,-9.56c0,-0.17 0,-0.32 -0.02,-0.44l0.02,0l0,-33.09l24.92,-4.85l0,22.09c-0.97,-0.34 -2.01,-0.54 -3.1,-0.54c-5.16,0 -9.33,4.27 -9.33,9.56c0,5.29 4.17,9.56 9.33,9.56s9.33,-4.27 9.33,-9.56c0,-0.17 -0.02,-0.32 -0.02,-0.44l0.02,0l0,-31.87l0,-3.63l0,-9.12c0,-1.91 -1.44,-3.31 -3.06,-3.02l0,-0.1l0,-0.02l-0.02,0.02z" fill="#999" id="svg_22"/>
    <path d="m530.69,426.91l-32.12,6.28c-1.26,0.25 -2.18,1.52 -2.18,3.02l0,10.17l0,3.63l0,23.34c-0.97,-0.34 -2.01,-0.54 -3.1,-0.54c-5.16,0 -9.33,4.27 -9.33,9.56c0,5.29 4.17,9.56 9.33,9.56s9.33,-4.27 9.33,-9.56c0,-0.17 0,-0.32 -0.02,-0.44l0.02,0l0,-33.09l24.92,-4.85l0,22.09c-0.97,-0.34 -2.01,-0.56 -3.1,-0.56c-5.16,0 -9.33,4.27 -9.33,9.56c0,5.29 4.17,9.56 9.33,9.56c5.16,0 9.33,-4.27 9.33,-9.56c0,-0.17 -0.02,-0.32 -0.02,-0.47l0.02,0l0,-31.87l0,-3.63l0,-9.14c0,-1.91 -1.44,-3.31 -3.06,-3.02l0,-0.02l-0.02,0z" fill="#666" id="svg_23"/>
    <path d="m141.03,113.86l-43.98,8.58c-1.71,0.34 -2.98,2.11 -2.98,4.14l0,13.9l0,5l0,31.94c-1.33,-0.47 -2.77,-0.74 -4.26,-0.74c-7.06,0 -12.79,5.86 -12.79,13.11c0,7.23 5.73,13.09 12.79,13.09s12.79,-5.86 12.79,-13.09c0,-0.22 -0.02,-0.42 -0.02,-0.64l0.02,0l0,-45.32l34.11,-6.64l0,30.27c-1.33,-0.47 -2.77,-0.74 -4.26,-0.74c-7.06,0 -12.79,5.86 -12.79,13.11c0,7.23 5.73,13.09 12.79,13.09s12.79,-5.86 12.79,-13.09c0,-0.22 -0.02,-0.42 -0.02,-0.64l0.02,0l0,-43.66l0,-5l0,-12.5c0,-2.62 -1.99,-4.53 -4.17,-4.14l-0.05,0l0,0l0.02,-0.05z" fill="#666" id="svg_24"/>
    <path d="m201.99,157.22l-28.61,5.59c-1.11,0.25 -1.97,1.35 -1.97,2.67l0,9.05l0,3.26l0,20.79c-0.88,-0.32 -1.82,-0.51 -2.77,-0.51c-4.59,0 -8.34,3.8 -8.34,8.51c0,4.71 3.72,8.51 8.34,8.51c4.59,0 8.34,-3.82 8.34,-8.51c0,-0.12 0,-0.27 -0.02,-0.42l0.02,0l0,-29.49l22.19,-4.34l0,19.68c-0.88,-0.32 -1.82,-0.51 -2.77,-0.51c-4.59,0 -8.34,3.82 -8.34,8.51c0,4.71 3.72,8.53 8.34,8.53s8.34,-3.82 8.34,-8.53c0,-0.12 0,-0.27 -0.02,-0.42l0.02,0l0,-28.41l0,-3.26l0,-8.14c0,-1.69 -1.3,-2.97 -2.72,-2.67l0,0.07l0,0l-0.02,0.05z" fill="#26AB3C" id="svg_25"/>
    <path d="m79.66,255.18c0,-6.99 -4.86,-12.67 -10.82,-12.67s-10.82,5.69 -10.82,12.67s4.86,12.67 10.82,12.67s10.82,-5.69 10.82,-12.67zm-10.82,10.47c-4.95,0 -8.98,-4.71 -8.98,-10.47s4.03,-10.47 8.98,-10.47s8.98,4.71 8.98,10.47s-4.03,10.47 -8.98,10.47z" fill="#DBDBDB" id="svg_26"/>
    <path d="m250.35,64.17c0,-6.99 -4.86,-12.67 -10.82,-12.67s-10.82,5.69 -10.82,12.67s4.86,12.67 10.82,12.67s10.82,-5.69 10.82,-12.67zm-10.82,10.47c-4.95,0 -8.98,-4.71 -8.98,-10.47s4.03,-10.47 8.98,-10.47s8.98,4.71 8.98,10.47s-4.03,10.47 -8.98,10.47z" fill="#DBDBDB" id="svg_27"/>
    <path d="m162.63,489.2c0,-6.99 -4.86,-12.67 -10.82,-12.67s-10.82,5.69 -10.82,12.67s4.86,12.67 10.82,12.67s10.82,-5.69 10.82,-12.67zm-10.82,10.47c-4.95,0 -8.98,-4.71 -8.98,-10.47s4.03,-10.47 8.98,-10.47s8.98,4.71 8.98,10.47s-4.03,10.47 -8.98,10.47z" fill="#666" id="svg_28"/>
    <polygon fill="#DBDBDB" id="svg_29" points="80.61553955078125,304.2989807128906 78.72974395751953,304.2989807128906 78.72974395751953,311.4745788574219 72.60099411010742,311.4745788574219 72.60099411010742,313.6824645996094 78.72974395751953,313.6824645996094 78.72974395751953,320.8580322265625 80.61553955078125,320.8580322265625 80.61553955078125,313.6824645996094 86.7442626953125,313.6824645996094 86.7442626953125,311.4745788574219 80.61553955078125,311.4745788574219 "/>
    <polygon fill="#666" id="svg_30" points="132.47412872314453,251.31068420410156 126.34532165527344,251.31068420410156 126.34532165527344,244.13511657714844 124.45956420898438,244.13511657714844 124.45956420898438,251.31068420410156 118.33080291748047,251.31068420410156 118.33080291748047,253.51844787597656 124.45956420898438,253.51844787597656 124.45956420898438,260.6939392089844 126.34532165527344,260.6939392089844 126.34532165527344,253.51844787597656 132.47412872314453,253.51844787597656 "/>
    <polygon fill="#DBDBDB" id="svg_31" points="395.53857421875,79.65008926391602 389.4096984863281,79.65008926391602 389.4096984863281,72.4745864868164 387.5238952636719,72.4745864868164 387.5238952636719,79.65008926391602 381.3952331542969,79.65008926391602 381.3952331542969,81.85795211791992 387.5238952636719,81.85795211791992 387.5238952636719,89.03345489501953 389.4096984863281,89.03345489501953 389.4096984863281,81.85795211791992 395.53857421875,81.85795211791992 "/>
    <polygon fill="#DBDBDB" id="svg_32" points="178.67539978027344,68.61087036132812 172.546630859375,68.61087036132812 172.546630859375,61.43534469604492 170.66087341308594,61.43534469604492 170.66087341308594,68.61087036132812 164.53207397460938,68.61087036132812 164.53207397460938,70.81864929199219 170.66087341308594,70.81864929199219 170.66087341308594,77.99423599243164 172.546630859375,77.99423599243164 172.546630859375,70.81864929199219 178.67539978027344,70.81864929199219 "/>
    <path d="m516.69,328.03c0,-6.99 -4.86,-12.67 -10.82,-12.67s-10.82,5.69 -10.82,12.67s4.86,12.67 10.82,12.67s10.82,-5.69 10.82,-12.67zm-10.82,10.47c-4.95,0 -8.98,-4.71 -8.98,-10.47s4.03,-10.47 8.98,-10.47s8.98,4.71 8.98,10.47s-4.03,10.47 -8.98,10.47z" fill="#DBDBDB" id="svg_33"/>
    <polygon fill="#DBDBDB" id="svg_34" points="517.6418762207031,377.158203125 515.7561340332031,377.158203125 515.7561340332031,384.333740234375 509.6272888183594,384.333740234375 509.6272888183594,386.5415954589844 515.7561340332031,386.5415954589844 515.7561340332031,393.7170715332031 517.6418762207031,393.7170715332031 517.6418762207031,386.5415954589844 523.7705688476562,386.5415954589844 523.7705688476562,384.333740234375 517.6418762207031,384.333740234375 "/>
    <polygon fill="#DBDBDB" id="svg_35" points="553,341.2806091308594 546.8711547851562,341.2806091308594 546.8711547851562,334.10504150390625 544.9854125976562,334.10504150390625 544.9854125976562,341.2806091308594 538.856689453125,341.2806091308594 538.856689453125,343.4884033203125 544.9854125976562,343.4884033203125 544.9854125976562,350.66400146484375 546.8711547851562,350.66400146484375 546.8711547851562,343.4884033203125 553,343.4884033203125 "/>
   </g>
  </g>
 </g>
</svg>