<svg xmlns="http://www.w3.org/2000/svg" fill="currentColor" width="800" height="800" viewBox="0 0 47.001 47.001" xml:space="preserve">
  <path d="M21.026 30.283c.007.23-.001.463-.021.695H26c-.046-.462-.043-.943.029-1.439.037-.268.119-.533.189-.797h-5.192v1.541z"/>
  <path d="M45.881 28.74h-.561V18.26h.561c.618 0 1.119-.501 1.119-1.119s-.501-1.119-1.119-1.119h-.561v-6.51c0-4.319-3.514-7.833-7.832-7.833H9.512c-4.319 0-7.833 3.514-7.833 7.833v6.51h-.56c-.618 0-1.119.501-1.119 1.12 0 .618.501 1.119 1.119 1.119h.56v10.48h-.56C.501 28.74 0 29.242 0 29.859c0 .618.501 1.119 1.119 1.119h.56v6.51c0 4.319 3.514 7.833 7.833 7.833h27.976c4.32 0 7.834-3.514 7.834-7.833v-6.51h.56c.618 0 1.119-.501 1.119-1.119-.001-.617-.502-1.119-1.12-1.119zm-5.035-12.718h-2.242v2.238h2.242v10.48h-2.367c-.152.76-.444 1.516-.86 2.238h3.228v6.51c0 1.852-1.507 3.357-3.357 3.357H9.512c-1.851 0-3.357-1.506-3.357-3.357v-6.51h2.73c.297-.773.733-1.527 1.309-2.238H6.155V18.26h9.768v-2.238H6.155v-6.51c0-1.851 1.506-3.357 3.357-3.357h27.976c1.852 0 3.357 1.506 3.357 3.357v6.51h.001z"/>
  <path d="m35.814 9.914-17.576 2.953c-.692.118-1.198.716-1.198 1.417v12.523c-.28-.059-.573-.096-.879-.096-1.561 0-3.223.765-4.556 2.096-2.325 2.326-2.781 5.512-1.043 7.25.688.691 1.622 1.053 2.695 1.053 1.563 0 3.223-.766 4.556-2.097 1.438-1.441 2.16-3.207 2.091-4.759.001-.021.005-9.442.005-9.442l14.707-2.472v5.514a4.1246 4.1246 0 0 0-.879-.096c-1.563 0-3.223.762-4.557 2.096-2.324 2.324-2.783 5.512-1.041 7.25.688.688 1.618 1.053 2.694 1.053 1.562 0 3.222-.764 4.556-2.099 1.439-1.44 2.162-3.211 2.09-4.763.002-.021.006-15.965.006-15.965 0-.422-.187-.822-.508-1.094a1.423 1.423 0 0 0-1.163-.322z"/>
</svg>