<svg xmlns="http://www.w3.org/2000/svg" xmlns:xlink="http://www.w3.org/1999/xlink" xml:space="preserve" style="enable-background:new 0 0 500 500" viewBox="0 0 500 500">
  <defs>
    <path id="reuse-0" d="M478 378s27-60 6-152S325 23 240 34s-59 110-87 155S36 230 22 306s96 180 258 171 198-99 198-99z" style="fill:#26ab3c"/>
  </defs>
  <use xlink:href="#reuse-0" style="fill:#26ab3c"/>
  <use xlink:href="#reuse-0" style="opacity:.7;fill:#fff"/>
  <path d="M20.333 289.113H481v4.196H20.333z" style="fill:#263238"/>
  <path d="M373.676 291.59V39.553M165.633 291.59V41M32.821 158.404h431.55" style="fill:none;stroke:#263238;stroke-linecap:round;stroke-linejoin:round;stroke-miterlimit:10"/>
  <path d="m226.365 134.674-5.382 3.316M317.085 78.765l-83.488 51.452M328.1 82.242l-66.888 41.222M357.313 64.238l-20.202 12.45M23.365 134.674l-5.382 3.316M114.085 78.765l-83.488 51.452M125.1 82.242l-66.888 41.222M154.313 64.238l-20.202 12.45M217.365 269.674l-5.382 3.317M308.085 213.765l-83.488 51.452M319.1 217.242l-66.888 41.222M348.313 199.238l-20.202 12.45" style="fill:none;stroke:#263238;stroke-width:.5;stroke-linecap:round;stroke-linejoin:round;stroke-miterlimit:10"/>
  <path d="M418.43 221.028s.525 65.561.525 82.869c0 17.308-.525 121.006-.525 121.006" style="fill:none;stroke:#263238;stroke-width:3;stroke-linecap:round;stroke-linejoin:round;stroke-miterlimit:10"/>
  <path d="m457.766 237.811-16.259-13.636 45.631 5.245-40.386-13.113 41.435-7.342h-46.68l36.19-27.274-40.91 20.455 23.602-40.386-31.47 36.19 11.015-52.973-20.455 49.302-2.098-55.072-4.196 56.121-22.319-49.579 15.5 54.299-33.383-36.416 29.188 44.808-41.322-29.48 38.699 37.347-43.809-23.936 40.138 27.083-36.306-4.729 35.257 9.974-28.231 4.715 29.28-1.043-17.309 11.539 40.911-11.015zM457.766 380.811l-16.259-13.636 45.631 5.245-40.386-13.113 41.435-7.342h-46.68l36.19-27.274-40.91 20.455 23.602-40.386-31.47 36.19 11.015-52.973-20.455 49.302-2.098-55.072-4.196 56.121-22.319-49.578 15.5 54.298-33.383-36.416 29.188 44.808-41.322-29.48 38.699 37.347-43.809-23.936 40.138 27.083-36.306-4.729 35.257 9.974-28.231 4.715 29.28-1.043-17.309 11.538 40.911-11.014z" style="fill:#92E3A9"/>
  <path d="M402.695 287.114s-1.573 13.637-.525 18.882c1.049 5.245 1.573 11.539 1.573 18.357s.525 35.796.525 40.517-.525 44.824-.525 48.495v12.588M404.268 359.624s2.098-39.992 4.196-45.237c2.098-5.245 3.672-3.671 4.196-9.965.524-6.294.524-8.916 1.573-11.014 1.049-2.098 2.098-5.769 2.098-5.769l1.049-4.196" style="fill:none;stroke:#263238;stroke-width:3;stroke-linecap:round;stroke-linejoin:round;stroke-miterlimit:10"/>
  <path d="m441.507 300.75-16.259-13.636 45.631 5.244-40.386-13.112 41.435-7.343h-46.68l36.19-27.273-40.91 20.455 23.602-40.386-31.47 36.19 11.015-52.973-20.456 49.302-2.097-55.072-4.196 56.121-16.26-50.876 9.441 55.596-28.847-41.435 24.651 49.827-37.835-24.721 35.213 32.588-39.046-15.983 35.374 19.13-36.651-3.164 35.602 8.409-24.745 5.642 25.794-1.97-17.308 11.538 40.91-11.014z" style="fill:#92e3a9"/>
  <path d="M388.328 411.091 377.1 429.803a12.3499 12.3499 0 0 0-1.338 9.558l4.989 18.587c.727 2.707 3.18 4.589 5.983 4.589h51.136c2.803 0 5.257-1.882 5.983-4.589l4.989-18.587c.869-3.236.386-6.685-1.338-9.558l-11.227-18.713a4.2386 4.2386 0 0 0-3.635-2.058h-40.678c-1.49.001-2.87.782-3.636 2.059z" style="fill:#263238;stroke:#263238;stroke-linejoin:round;stroke-miterlimit:10"/>
  <path d="M152.114 323.041h4.711v115.316h-4.711zM172.372 323.041h4.711v115.316h-4.711z" style="fill:#263238;stroke:#263238;stroke-linecap:round;stroke-linejoin:round;stroke-miterlimit:10"/>
  <path d="M146.46 436.001h32.036v7.538H146.46zM381.494 260.383c10.611-9.694 39.839-38.538 32.087-55.591-9.422-20.729-51.822-12.72-83.387-14.133-31.565-1.413-49.938-23.556-49.938-23.556L299.572 128H247.75l-78.12 132.383h211.864z" style="fill:#263238;stroke:#263238;stroke-linecap:round;stroke-linejoin:round;stroke-miterlimit:10"/>
  <path d="M251.911 195.05h-97.29l-28.572 65.906h97.29z" style="fill:#515b60;stroke:#263238;stroke-linecap:round;stroke-linejoin:round;stroke-miterlimit:10"/>
  <path d="M241.104 203.051h-83.778l-24.278 56h83.778z" style="fill:#fff"/>
  <path d="M200.344 207.966h35.634M198.855 210.535h35.634M196.27 217.276h35.635M194.781 219.844h35.635M192.197 226.586h35.634M190.708 229.154h35.634M188.124 235.896h35.634M186.635 238.464h35.634M184.05 245.206h35.635M182.561 247.774h35.635M179.977 254.516h35.634M178.488 257.084h35.634M160.215 207.966h35.634M158.726 210.535h35.634M156.142 217.276h35.634M154.653 219.844h35.634M152.068 226.586h35.635M150.579 229.154h35.635M147.995 235.896h35.634M146.506 238.464h35.634M143.921 245.206h35.635M142.432 247.774h35.635M139.848 254.516h35.634M138.359 257.084h35.634" style="fill:none;stroke:#263238;stroke-miterlimit:10"/>
  <path d="M244.292 326.1h56.763v9.905h-56.763zM244.292 336.005l19.429 13.334h16l21.334-13.334z" style="fill:#3c464c;stroke:#263238;stroke-linecap:round;stroke-linejoin:round;stroke-miterlimit:10"/>
  <path d="M277.154 447.667H266.67l-2.949-98.328h16.381z" style="fill:#3c464c;stroke:#263238;stroke-linecap:round;stroke-linejoin:round;stroke-miterlimit:10"/>
  <circle cx="268.293" cy="454.144" r="7.619" style="fill:#676f74;stroke:#263238;stroke-linecap:round;stroke-linejoin:round;stroke-miterlimit:10"/>
  <path d="M51.29 326.1h56.763v9.905H51.29zM51.29 336.005l19.429 13.334h16l21.334-13.334z" style="fill:#263238;stroke:#263238;stroke-linecap:round;stroke-linejoin:round;stroke-miterlimit:10"/>
  <path d="M84.152 447.667H73.668l-2.949-98.328H87.1z" style="fill:#263238;stroke:#263238;stroke-linecap:round;stroke-linejoin:round;stroke-miterlimit:10"/>
  <circle cx="75.29" cy="454.144" r="7.619" style="fill:#676f74;stroke:#263238;stroke-linecap:round;stroke-linejoin:round;stroke-miterlimit:10"/>
  <path d="M359.872 326.1h56.763v9.905h-56.763zM359.872 336.005l19.429 13.334h16l21.334-13.334z" style="fill:#3c464c;stroke:#263238;stroke-linecap:round;stroke-linejoin:round;stroke-miterlimit:10"/>
  <path d="M392.733 447.667h-10.484l-2.948-98.328h16.381z" style="fill:#3c464c;stroke:#263238;stroke-linecap:round;stroke-linejoin:round;stroke-miterlimit:10"/>
  <circle cx="383.872" cy="454.144" r="7.619" style="fill:#676f74;stroke:#263238;stroke-linecap:round;stroke-linejoin:round;stroke-miterlimit:10"/>
  <path d="M69.512 266.036V298.7H47.37c-2.515 0-4.554 2.039-4.554 4.554v23.399H254.188v-65.642H74.537c-2.775 0-5.025 2.25-5.025 5.025z" style="fill:#263238;stroke:#263238;stroke-linecap:round;stroke-linejoin:round;stroke-miterlimit:10"/>
  <path d="M80.505 266.036V298.7H58.362c-2.515 0-4.554 2.039-4.554 4.554v23.399h200.38v-65.642H85.53c-2.775 0-5.025 2.25-5.025 5.025z" style="fill:#263238;stroke:#263238;stroke-linecap:round;stroke-linejoin:round;stroke-miterlimit:10"/>
  <path d="M80.505 261.325h182.792v65.328H80.505z" style="fill:#3c464c;stroke:#263238;stroke-linecap:round;stroke-linejoin:round;stroke-miterlimit:10"/>
  <path d="M246.964 282.996H81.231" style="fill:none;stroke:#263238;stroke-linecap:round;stroke-linejoin:round;stroke-miterlimit:10"/>
  <path d="M247.278 266.036V298.7h-22.142c-2.515 0-4.554 2.039-4.554 4.554v23.399h200.38v-65.642H252.304c-2.776 0-5.026 2.25-5.026 5.025z" style="fill:#263238;stroke:#263238;stroke-linecap:round;stroke-linejoin:round;stroke-miterlimit:10"/>
  <path d="M258.271 266.036V298.7h-22.142c-2.515 0-4.554 2.039-4.554 4.554v23.399h218.282c1.041 0 1.884-.844 1.884-1.884V262.895c0-1.041-.844-1.884-1.884-1.884H263.296c-2.775 0-5.025 2.25-5.025 5.025z" style="fill:#3c464c;stroke:#263238;stroke-linecap:round;stroke-linejoin:round;stroke-miterlimit:10"/>
  <path d="M74.524 310.228h4.571v1.278h-4.571zM80.646 310.228h4.571v1.278h-4.571zM86.767 310.228h4.571v1.278h-4.571zM92.889 310.228h4.571v1.278h-4.571zM99.011 310.228h4.571v1.278h-4.571zM105.133 310.228h4.571v1.278h-4.571zM111.254 310.228h4.571v1.278h-4.571zM117.376 310.228h4.571v1.278h-4.571zM123.498 310.228h4.571v1.278h-4.571zM129.62 310.228h4.571v1.278h-4.571zM135.741 310.228h4.571v1.278h-4.571zM141.863 310.228h4.571v1.278h-4.571zM147.985 310.228h4.571v1.278h-4.571zM154.107 310.228h4.571v1.278h-4.571zM160.228 310.228h4.571v1.278h-4.571zM166.35 310.228h4.571v1.278h-4.571zM172.472 310.228h4.571v1.278h-4.571zM178.594 310.228h4.571v1.278h-4.571zM184.715 310.228h4.571v1.278h-4.571zM190.837 310.228h4.571v1.278h-4.571zM196.959 310.228h4.571v1.278h-4.571zM203.08 310.228h4.571v1.278h-4.571zM209.202 310.228h4.571v1.278h-4.571zM215.324 310.228h4.571v1.278h-4.571z" style="fill:#263238;stroke:#263238;stroke-linecap:round;stroke-linejoin:round;stroke-miterlimit:10"/>
  <path d="M53.808 310.949h166.774v15.704H53.808z" style="fill:#fff;stroke:#263238;stroke-linecap:round;stroke-linejoin:round;stroke-miterlimit:10"/>
  <path d="M57.6 313.016v-1.511M61.831 313.016v-1.511M66.062 313.016v-1.511M70.293 313.016v-1.511M74.524 313.016v-1.511M78.755 313.016v-1.511M82.986 313.016v-1.511M87.217 313.016v-1.511M91.448 313.016v-1.511M95.678 313.016v-1.511M99.909 313.016v-1.511M104.14 313.016v-1.511M108.371 313.016v-1.511M112.602 313.016v-1.511M116.833 313.016v-1.511M121.064 311.505v1.511M125.295 313.016v-1.511M129.526 313.016v-1.511M133.757 313.016v-1.511M137.988 313.016v-1.511M142.219 313.016v-1.511M146.449 313.016v-1.511M150.68 313.016v-1.511M154.911 313.016v-1.511M159.142 313.016v-1.511M163.373 313.016v-1.511M167.604 313.016v-1.511M171.835 313.016v-1.511M176.066 313.016v-1.511M180.297 313.016v-1.511M184.528 313.016v-1.511M188.759 313.016v-1.511M192.99 313.016v-1.511M197.22 313.016v-1.511M201.451 313.016v-1.511M205.682 313.016v-1.511M209.913 313.016v-1.511M214.144 313.016v-1.511M218.375 313.016v-1.511" style="fill:none;stroke:#263238;stroke-linecap:round;stroke-linejoin:round;stroke-miterlimit:10"/>
  <path d="M53.808 313.461h166.774v13.191H53.808zM118.883 444.844s.671.459 1.714 1.161c2.531 1.703 7.253 4.834 9.895 6.302 3.732 2.073 10.47 4.769 10.47 6.013 0 1.244-1.658 3.317-3.732 3.317s-13.787-.208-18.348-.208c-3.375 0-7.659-1.135-9.658-1.726-.563-.166-1.122.259-1.122.846h0a.88.88 0 0 1-.88.88H95.386c-.524 0-.934-.45-.876-.971.219-1.965.909-6.443 2.812-8.98 2.489-3.317 17.829-10.78 21.561-6.634z" style="fill:#263238;stroke:#263238;stroke-linecap:round;stroke-linejoin:round;stroke-miterlimit:10"/>
  <path d="m114.488 362.495-14.593 79.5c-.052.225-.187.418-.383.541-.893.562-3.505 2.396-3.848 4.796-.254 1.777-.352 3.555-.39 4.665-.02.58.513 1.018 1.078.886 2.925-.684 10.886-2.632 14.238-4.308 3.303-1.651 6.606-3.04 7.813-3.536a.8746.8746 0 0 0 .537-.716l.341-3.066a.8725.8725 0 0 0-.016-.288l-.731-3.291a.8753.8753 0 0 1 .066-.572l32.788-82.075s2.488-2.073 0-4.975c-2.488-2.902-28.609-3.317-32.755-1.659s-4.145 14.098-4.145 14.098z" style="fill:#515b60;stroke:#263238;stroke-linecap:round;stroke-linejoin:round;stroke-miterlimit:10"/>
  <path d="m105.859 408.546 33.096-23.443 11.031-26.2-37.232 5.171zM150.255 444.844s.671.459 1.714 1.161c2.531 1.703 7.253 4.834 9.895 6.302 3.732 2.073 10.47 4.769 10.47 6.013 0 1.244-1.658 3.317-3.732 3.317-2.073 0-13.787-.208-18.348-.208-3.375 0-7.659-1.135-9.658-1.726-.563-.166-1.122.259-1.122.846h0a.88.88 0 0 1-.88.88h-11.836c-.524 0-.934-.45-.876-.971.219-1.965.909-6.443 2.812-8.98 2.488-3.317 17.829-10.78 21.561-6.634z" style="fill:#263238;stroke:#263238;stroke-linecap:round;stroke-linejoin:round;stroke-miterlimit:10"/>
  <path d="m145.86 362.495-14.593 79.5c-.053.225-.187.418-.383.541-.893.562-3.505 2.396-3.848 4.796-.254 1.777-.352 3.555-.39 4.665-.02.58.513 1.018 1.078.886 2.925-.684 10.886-2.632 14.238-4.308 3.303-1.651 6.606-3.04 7.813-3.536a.8746.8746 0 0 0 .537-.716l.341-3.066a.8725.8725 0 0 0-.016-.288l-.731-3.291a.8753.8753 0 0 1 .066-.572l32.788-82.075s2.488-2.073 0-4.975c-2.488-2.902-28.609-3.317-32.755-1.659s-4.145 14.098-4.145 14.098z" style="fill:#515b60;stroke:#263238;stroke-linecap:round;stroke-linejoin:round;stroke-miterlimit:10"/>
  <path d="m163.336 364.052-19.744 19.738 3.5-18.737z" style="fill:#263238;stroke:#263238;stroke-linecap:round;stroke-linejoin:round;stroke-miterlimit:10"/>
  <path d="M179.858 359.592s6.634-8.707 6.219-17.829c-.415-9.122-67.42-11.609-67.42-11.609s-33.999 21.975-32.755 25.706c1.244 3.732 10.642 12.162 10.642 12.162l70.046-4.699" style="fill:#515b60;stroke:#263238;stroke-linecap:round;stroke-linejoin:round;stroke-miterlimit:10"/>
  <path d="M123.96 308.188s7.901 3.647 8.104 4.862c.203 1.216-.405 1.418-1.215 1.216-.81-.203-6.078-2.026-6.078-2.026l-.811-4.052z" style="fill:#fff;stroke:#263238;stroke-linecap:round;stroke-linejoin:round;stroke-miterlimit:10"/>
  <path d="m121.123 310.011 1.824 6.483-6.686-2.026.405-3.241z" style="fill:#263238;stroke:#263238;stroke-linecap:round;stroke-linejoin:round;stroke-miterlimit:10"/>
  <path d="M123.149 305.959c-.452-.151-2.418.091-4.708.454l-1.167-1.264-5.993 2.543c-.921.177-1.503.294-1.503.294s-4.255 7.698-1.216 9.522c3.039 1.823 10.524.795 12.966 2.229 2.442 1.434 4.052.81 4.66-.203.608-1.013-8.104-6.483-8.104-6.483l4.255-2.228 3.46 6.08s2.415.606 2.82-.002c.405-.61-4.254-10.537-5.47-10.942z" style="fill:#fff;stroke:#263238;stroke-linecap:round;stroke-linejoin:round;stroke-miterlimit:10"/>
  <path d="M74.984 225.67s-.144.136-.41.393c-2.909 2.805-20.415 19.999-24.467 31.394-4.423 12.439-8.569 64.128-9.122 75.737-.553 11.609-.553 24.324 1.935 27.918 2.488 3.593 8.845 6.081 12.991 6.91 4.146.829 40.633 0 40.633 0l5.805-6.634-8.292-9.674h14.65l14.374-21.284s.276-2.211-2.488-3.04c-2.764-.829-6.91-.829-6.91-.829s-5.805-50.86-6.357-58.6c-.553-7.74-7.463-25.983-7.463-25.983L74.984 225.67z" style="fill:#92e3a9;stroke:#263238;stroke-linecap:round;stroke-linejoin:round;stroke-miterlimit:10"/>
  <path d="m72.192 260.599 5.497 9.772-7.94 4.275 14.353-4.581-.916 7.33 8.383-3.905-18.461-16.251z" style="fill:#263238;stroke:#263238;stroke-linecap:round;stroke-linejoin:round;stroke-miterlimit:10"/>
  <path d="M69.78 340.492c-3.775-.403-5.852-1.216-5.852-1.216M112.023 327.252s-7.878 6.634-23.219 11.195c-4.56 1.355-8.606 1.979-12.042 2.185M101.658 326.423s-12.439 8.707-21.56 9.951M87.146 268.791s-24.463 9.122-31.097 9.951M90.049 271.693s-12.024 9.951-14.512 11.609M73.049 285.376l-5.804 3.731" style="fill:none;stroke:#263238;stroke-linecap:round;stroke-linejoin:round;stroke-miterlimit:10"/>
  <path d="M115.078 181.163s4.93 9.861 4.93 12.326-1.233 2.773 0 3.698c1.233.924 7.395 8.628 6.163 9.861-1.233 1.233-4.622 3.39-4.622 3.39s1.541 15.099-1.541 16.023c-3.081.924-5.238 1.233-5.238 1.233s-8.012 5.855-9.552 6.779c-1.541.924-4.622 3.698-4.622 3.698l-21.878-16.64s2.773-6.163 4.006-8.012c1.233-1.849-.924-15.099-1.232-19.105-.308-4.006 14.791-11.709 18.797-12.942 4.004-1.234 14.789-.309 14.789-.309z" style="fill:#fff;stroke:#263238;stroke-linecap:round;stroke-linejoin:round;stroke-miterlimit:10"/>
  <path d="M118.552 194.318s-2.97-1.67-5.011.371" style="fill:none;stroke:#263238;stroke-width:2;stroke-linecap:round;stroke-linejoin:round;stroke-miterlimit:10"/>
  <path d="M119.295 208.424c0-2.598-2.598-6.311-2.598-6.311l1.114-2.042h-4.64l4.64-1.485-.928-.928M120.594 213.435l-4.455.371M114.655 198.03l3.155-1.114M116.882 198.958l.185 1.299" style="fill:none;stroke:#263238;stroke-linecap:round;stroke-linejoin:round;stroke-miterlimit:10"/>
  <path d="m94.124 203.349 6.163-1.233s-.308-4.006.924-5.547c1.233-1.541 7.704-4.006 7.704-5.238 0-1.233-6.471-6.163-5.547-7.395.924-1.233 20.954-1.233 20.954-1.233s-4.622-8.628-10.477-9.552c-5.855-.924-12.018.308-12.018.308s3.39-3.081-1.233-2.773c-4.622.308-23.419 9.552-26.192 13.558-2.773 4.006-5.238 3.082-2.465 12.326 2.773 9.244 6.471 18.797 11.401 19.721 4.93.924 11.093-5.855 11.093-8.32.001-2.465-.307-4.622-.307-4.622z" style="fill:#263238;stroke:#263238;stroke-linecap:round;stroke-linejoin:round;stroke-miterlimit:10"/>
  <path d="M99.054 205.198c-.616-.924-6.471-7.087-8.628-4.314-2.157 2.773-1.233 9.244 1.849 12.634 3.081 3.39 7.704-.924 7.704-.924" style="fill:#fff;stroke:#263238;stroke-linecap:round;stroke-linejoin:round;stroke-miterlimit:10"/>
  <path d="M77.61 219.451s24.255 15.134 26.121 17.621c1.866 2.488 0 10.78 0 10.78l-30.889-20.109 4.768-8.292z" style="fill:#92e3a9;stroke:#263238;stroke-linecap:round;stroke-linejoin:round;stroke-miterlimit:10"/>
  <path d="M177.81 252.482s1.382-5.252 1.382-8.569 1.382-6.081 3.041-7.74c1.658-1.658 5.528-1.935 5.528-1.935l2.755-1.378c1.326-.663 2.927-.403 3.976.645h0a3.444 3.444 0 0 1 1.009 2.435v1.061c0 .829 3.041 5.805 3.041 7.187s-1.382 3.317-3.593 6.081-14.926 9.122-14.926 9.122l-2.213-6.909z" style="fill:#fff;stroke:#263238;stroke-linecap:round;stroke-linejoin:round;stroke-miterlimit:10"/>
  <path d="m187.761 234.239-4.146 3.87M177.641 230.946c.142-.354.53-.542.896-.433l10.191 3.044-1.407.704-9.176-2.326c-.433-.11-.67-.575-.504-.989h0z" style="fill:none;stroke:#263238;stroke-linecap:round;stroke-linejoin:round;stroke-miterlimit:10"/>
  <path d="m173.111 254.417 4.975-3.04 3.594 7.739-5.529 2.764z" style="fill:#92e3a9;stroke:#263238;stroke-linecap:round;stroke-linejoin:round;stroke-miterlimit:10"/>
  <path d="M129.714 270.449s-33.999-28.194-40.633-30.682c-6.634-2.488-15.756 1.935-18.796 11.333-3.041 9.398 7.74 14.65 9.951 17.138 2.211 2.488 40.841 31.398 42.776 31.951 1.935.553 56.732-33.609 55.627-37.203-1.106-3.593-6.081-10.227-6.081-10.227l-39.251 17.414s-1.935-.553-3.593.276z" style="fill:#92e3a9;stroke:#263238;stroke-linecap:round;stroke-linejoin:round;stroke-miterlimit:10"/>
  <path d="m129.714 270.449-3.593 6.358M125.015 278.742l-1.106 3.04M132.202 271.279s-.553 3.593-1.106 4.975" style="fill:none;stroke:#263238;stroke-linecap:round;stroke-linejoin:round;stroke-miterlimit:10"/>
  <path d="M74.023 393.969v68.358h5.064v-54.655l6.571-13.703z" style="fill:#fff;stroke:#263238;stroke-linecap:round;stroke-linejoin:round;stroke-miterlimit:10"/>
  <path d="M74.338 393.969v68.358h-5.063v-54.655l-6.571-13.703z" style="fill:#515b60;stroke:#263238;stroke-linecap:round;stroke-linejoin:round;stroke-miterlimit:10"/>
  <path d="M28.747 384.438h87.574v9.532H28.747z" style="fill:#515b60;stroke:#263238;stroke-linecap:round;stroke-linejoin:round;stroke-miterlimit:10"/>
  <path d="M77.299 384.438h39.021v9.532H77.299z" style="fill:#fff;stroke:#263238;stroke-linecap:round;stroke-linejoin:round;stroke-miterlimit:10"/>
  <path d="M112.27 386.641H32.25c-4.833 0-8.75-3.918-8.75-8.75v-1.682c0-4.832 3.917-8.75 8.75-8.75h80.02c4.833 0 8.75 3.918 8.75 8.75v1.682c0 4.832-3.917 8.75-8.75 8.75z" style="fill:#263238;stroke:#263238;stroke-linecap:round;stroke-linejoin:round;stroke-miterlimit:10"/>
  <path d="M121.02 378.396v-2.693c0-4.553-3.691-8.244-8.244-8.244h-29.5c-4.553 0-8.244 3.691-8.244 8.244v2.693c0 4.553 3.691 8.244 8.244 8.244h29.5c4.553.001 8.244-3.69 8.244-8.244z" style="fill:#263238;stroke:#263238;stroke-linecap:round;stroke-linejoin:round;stroke-miterlimit:10"/>
  <path d="M31.427 393.969v68.358h5.064v-54.655l6.571-13.703z" style="fill:#fff;stroke:#263238;stroke-linecap:round;stroke-linejoin:round;stroke-miterlimit:10"/>
  <path d="M28.747 393.969v68.358h5.063v-54.655l6.571-13.703zM113.64 393.969v68.358h-5.064v-54.655l-6.571-13.703z" style="fill:#515b60;stroke:#263238;stroke-linecap:round;stroke-linejoin:round;stroke-miterlimit:10"/>
  <path d="M116.321 393.969v68.358h-5.064v-54.655l-6.571-13.703z" style="fill:#fff;stroke:#263238;stroke-linecap:round;stroke-linejoin:round;stroke-miterlimit:10"/>
  <path d="M15.345 462.537H493" style="fill:none;stroke:#263238;stroke-linecap:round;stroke-linejoin:round;stroke-miterlimit:10"/>
</svg>