<svg xmlns="http://www.w3.org/2000/svg" xml:space="preserve" x="0px" y="0px" style="enable-background:new 0 0 500 500" viewBox="0 0 500 500">
  <path d="M475.816 251.073c-5.185 43.903-25.23 94.949-65.266 118.399-60.491 35.438-55.427 89.944-173.499 113.64-18.409 3.696-35.879 5.252-52.352 4.944a202.06 202.06 0 0 1-25.695-2.095C83.962 474.999 33.463 422.838 14.935 359.873c-24.381-82.81 24.302-137.024 56.571-169.688 32.268-32.664 55.902-134.44 171.792-158.647 17.671-3.683 35.74-5.563 53.805-5.112 41.233 1.012 86.207 14.551 117.327 42.811a158.785 158.785 0 0 1 6.824 6.593c43.254 44.397 61.633 115.388 54.562 175.243z" style="fill:#92E3A9"/>
  <path d="M475.816 251.073c-5.185 43.903-25.23 94.949-65.266 118.399-60.491 35.438-55.427 89.944-173.499 113.64-18.409 3.696-35.879 5.252-52.352 4.944a202.06 202.06 0 0 1-25.695-2.095C83.962 474.999 33.463 422.838 14.935 359.873c-24.381-82.81 24.302-137.024 56.571-169.688 32.268-32.664 55.902-134.44 171.792-158.647 17.671-3.683 35.74-5.563 53.805-5.112 41.233 1.012 86.207 14.551 117.327 42.811a158.785 158.785 0 0 1 6.824 6.593c43.254 44.397 61.633 115.388 54.562 175.243z" style="opacity:0.7;fill:#92E3A9"/>
  <circle cx="156.746" cy="331.149" r="129.982" style="fill:#26ab3c"/>
  <circle cx="357.483" cy="207.689" r="35.108" style="fill:#26ab3c" transform="rotate(-76.343 357.492 207.695)"/>
  <circle cx="289.468" cy="336.517" r="19.114" style="fill:none;stroke:#000000;stroke-linecap:round;stroke-linejoin:round;stroke-miterlimit:10" transform="rotate(-76.827 289.472 336.512)"/>
  <circle cx="126.214" cy="91.818" r="29.674" style="fill:#26ab3c"/>
  <circle cx="322.734" cy="429.748" r="16.2" style="fill:#26ab3c" transform="rotate(-45.001 322.73 429.753)"/>
  <circle cx="397.51" cy="341.064" r="59.258" style="fill:none;stroke:#000000;stroke-linecap:round;stroke-linejoin:round;stroke-miterlimit:10"/>
  <circle cx="145.356" cy="67.152" r="17.417" style="fill:none;stroke:#000000;stroke-linecap:round;stroke-linejoin:round;stroke-miterlimit:10" transform="rotate(-77.032 145.351 67.152)"/>
  <circle cx="33.764" cy="280.981" r="17.417" style="fill:none;stroke:#000000;stroke-linecap:round;stroke-linejoin:round;stroke-miterlimit:10" transform="rotate(-22.5 33.761 280.97)"/>
  <circle cx="201.434" cy="86.418" r="6.687" style="stroke:#000000;stroke-linecap:round;stroke-linejoin:round;stroke-miterlimit:10"/>
  <circle cx="347.819" cy="318.858" r="23.84" style="stroke:#000000;stroke-linecap:round;stroke-linejoin:round;stroke-miterlimit:10"/>
  <path d="m290.345 72.837 8.397-27.051c.407-1.311 1.939-1.995 3.253-1.452 1.219.504 1.748 1.863 1.172 3.009l-12.822 25.494zM313.926 91.081l31.28-18.021c1.516-.873 3.291-.263 3.77 1.297.444 1.447-.418 3.121-1.908 3.706l-33.142 13.018z" style="fill:#263238"/>
  <path d="m314.858 106.519 36.087-.936c1.749-.045 3.019 1.338 2.696 2.937-.299 1.483-1.855 2.545-3.443 2.349l-35.34-4.35zM309.461 65.392l17.298-31.685c.838-1.535 2.672-1.94 3.893-.859 1.133 1.003 1.271 2.881.304 4.157l-21.495 28.387z" style="fill:#92E3A9"/>
  <path d="m203.793 500 10.187-23.023L231.299 500h67.581c-1.122-4.477-3.595-12.587-9.054-27.015-10.479-27.693-28.442-52.144-28.442-52.144l-2.238-4.42a38.01 38.01 0 0 1-.507-1.568c-1.497-4.99-8.483-23.203-11.976-28.192-1.539-2.199-3.514-3.961-5.242-5.245l-9.977-19.705-92.561 34.929L140.602 500h63.191z" style="fill:#263238;stroke:#263238;stroke-linecap:round;stroke-linejoin:round;stroke-miterlimit:10"/>
  <path d="m215.976 474.482 6.487-16.716M221.667 407.079c.303 4.049.493 8.638.297 12.764-.499 10.479-3.742 24.45-.998 27.943M220.467 395.892s.259 1.746.567 4.471M286.321 487.611c.947 3.165 1.446 5.582 1.509 6.83M247.162 422.899c4.429 8.857 10.728 19.647 18.213 27.382 9.788 10.114 16.269 23.748 19.653 33.37M240.177 407.119s1.818 4.921 5.041 11.772M182.174 442.19c-1.484 16.826-2.273 33.528-5.855 50.088M183.293 430.322s-.206 1.999-.516 5.28M144.871 410.113s16.217 2.744 26.945-.249M149.703 422.19c-1.822 5.443-4.197 12.668-5.83 18.112-2.994 9.98-3.742 12.225-3.742 12.225M152.356 414.354s-.578 1.68-1.46 4.292" style="fill:none;stroke:#A6A6A6;stroke-linecap:round;stroke-linejoin:round;stroke-miterlimit:10"/>
  <path d="M227.702 372.689s1.382 5.041 2.537 6.196c1.156 1.156 3.178 1.156 3.033-1.444-.144-2.6-2.077-7.746-2.077-7.746l-3.493 2.994zM185.788 395.143l-7.235 2.245s2.723 6.484 5.468 7.062c2.743.578 4.256-4.315 1.767-9.307z" style="fill:#FFFFFF;stroke:#263238;stroke-linecap:round;stroke-linejoin:round;stroke-miterlimit:10"/>
  <path d="M99.214 263.412s-27.195 40.667-21.706 49.649c5.489 8.982 50.896 68.86 50.896 68.86s1.247 13.223 3.243 14.97c1.996 1.746 28.442 4.99 34.929 3.992 6.487-.998 41.915-12.974 52.643-20.458 10.728-7.485 14.471-12.225 13.971-17.963-.499-5.738-27.444-87.073-27.444-87.073s59.878-1.746 70.856-4.491c10.978-2.744 15.469-8.982 12.475-14.221-2.994-5.239-29.44-23.203-34.43-24.949-4.99-1.746-26.945.998-26.945.998s-12.724-5.239-16.965-5.988c-4.241-.748-39.919 3.243-46.904 6.487-6.986 3.243-22.454 10.978-22.454 10.978l-42.165 19.209z" style="fill:#FFFFFF;stroke:#263238;stroke-linecap:round;stroke-linejoin:round;stroke-miterlimit:10"/>
  <path d="m147.793 365.092-15.007 17.569 7.687 5.124-12.068-5.865-20.459-24.949zM205.581 271.374l9.756-26.397-3.223 23.935 3.378-6.418 8.106 11.485-17.851 1.408-.166-4.013" style="fill:#263238;stroke:#263238;stroke-linecap:round;stroke-linejoin:round;stroke-miterlimit:10"/>
  <path d="m220.501 242.108-4.017 13.772M112.619 287.441s8.608-.574 17.789 17.215M130.982 294.901s2.869 7.46 4.591 12.624M161.969 248.994s11.477 9.755 16.068 18.937M156.231 250.141s4.591 3.443 7.46 12.051" style="fill:none;stroke:#263238;stroke-linecap:round;stroke-linejoin:round;stroke-miterlimit:10"/>
  <path d="M80.253 298.59s10.978-4.241 24.7-1.497c13.722 2.744 73.6 100.296 73.6 100.296l7.235-2.245s-53.142-83.829-61.874-93.06c-8.732-9.231-24.949-11.726-31.685-11.477-6.736.25-9.231 1.247-9.231 1.247l-2.745 6.736zM154.851 237.964s27.693 16.217 34.679 29.69c6.986 13.473 38.172 105.036 38.172 105.036l3.493-2.994s-13.722-43.911-25.199-75.346-29.689-51.894-34.43-55.138c-4.74-3.243-11.227-4.491-11.227-4.491l-5.488 3.243z" style="fill:#263238;stroke:#263238;stroke-linecap:round;stroke-linejoin:round;stroke-miterlimit:10"/>
  <path d="m135.349 272.491 14.013 3.146 26.248 105.56-21.229-96.628-6.954-16.104-12.81-3.66z" style="fill:#263238;stroke:#263238;stroke-linecap:round;stroke-linejoin:round;stroke-miterlimit:10"/>
  <path d="m136.388 267.903 12.974 7.734 32.683 128.987 19.71 10.728 12.475-27.444-60.128-114.517-7.984-16.965-8.482-.998z" style="fill:#92E3A9;stroke:#263238;stroke-linecap:round;stroke-linejoin:round;stroke-miterlimit:10"/>
  <path d="m140.818 259.394-5.167 23.768-38.856-16.948 2.067-13.434zM142.884 258.567l15.294 6.407-15.087-16.327z" style="fill:#FFFFFF;stroke:#263238;stroke-linecap:round;stroke-linejoin:round;stroke-miterlimit:10"/>
  <path d="M131.517 187.263s4.547 3.307 6.2 7.027c1.654 3.72 1.447 6.2 3.514 7.44 2.067 1.24 9.507 4.134 10.334 6.614.827 2.48-.827 6.614-.827 6.614s4.547 2.48 5.787 4.96c1.24 2.48 3.307 8.887 2.273 10.541-1.033 1.653 1.86 3.72-.413 9.3s-13.227 9.507-13.227 9.507l-2.48 11.367s-10.954 1.447-24.181-1.24c-13.227-2.687-19.634-6.614-19.634-6.614l-2.687-7.44s-9.507-5.374-15.294-9.301c-5.788-3.926 50.635-48.775 50.635-48.775z" style="fill:#A6A6A6;stroke:#263238;stroke-linecap:round;stroke-linejoin:round;stroke-miterlimit:10"/>
  <path d="m145.158 249.267-12.971.638 10.697 8.662z" style="fill:#263238;stroke:#263238;stroke-linecap:round;stroke-linejoin:round;stroke-miterlimit:10"/>
  <path d="M136.415 205.391c1 1.606 1.117 3.34.261 3.873-.856.534-2.361-.336-3.362-1.941-1-1.606-1.117-3.34-.261-3.873.857-.534 2.362.336 3.362 1.941z" style="fill:#263238"/>
  <path d="M150.738 214.958s-3.658 2.673-6.608.707M150.165 220.059s3.986 4.134 4.313 9.706" style="fill:none;stroke:#263238;stroke-linecap:round;stroke-linejoin:round;stroke-miterlimit:10"/>
  <path d="M133.501 195.677s-6.53 1.274-6.858 10.452" style="fill:none;stroke:#263238;stroke-width:2;stroke-linecap:round;stroke-linejoin:round;stroke-miterlimit:10"/>
  <path d="M145.158 249.267c3.49-.713-1.799-.804 1.653-1.493 3.4-1.551 8.954-4.579 10.5-8.372 2.02-4.959-.033-7.142.208-8.727-.395-.083-.842.063-1.225.382-.734.612-.122 3.67-.734 6.238-.611 2.569-1.875 4.395-1.875 4.395-1.702 1.021-9.193-7.49-10.214-12.597-.798-3.99 5.055-10.475 7.653-13.607a27.395 27.395 0 0 0-1.023-.636c-3.125 2.133-8.598 6.641-10.035 8.796-2.043 3.064-3.745 9.873-5.447 11.235s-18.807-3.566-20.958-7.879a7087.31 7087.31 0 0 0-4.851-9.702l-3.811 10.091s5.447 13.278 10.214 17.023c4.765 3.746 23.908 6.086 29.945 4.853z" style="fill:#808080"/>
  <path d="M112.313 213.397s.948 9.185.535 12.078c-.413 2.893-4.402 4.582-6.468 4.582s-13.076-2.196-13.076-2.196 0 7.438 3.719 10.744 1.218 5.909-.848 6.735c-2.066.826-11.188-8.147-15.294-9.301s31.432-22.642 31.432-22.642z" style="fill:#263238;stroke:#263238;stroke-linecap:round;stroke-linejoin:round;stroke-miterlimit:10"/>
  <path d="M102.242 229.188s-12.194-3.1-14.881 1.86c-2.687 4.96 3.513 10.54 10.334 12.401 6.82 1.86 12.401-1.86 12.401-5.58" style="fill:#A6A6A6;stroke:#263238;stroke-linecap:round;stroke-linejoin:round;stroke-miterlimit:10"/>
  <path d="M67.447 215.992S56.7 233.56 58.767 239.14c2.067 5.58 7.027 6.82 19.428 1.447 12.401-5.374 37.615-26.455 48.776-40.095 11.161-13.641 16.741-28.315 11.781-35.755-4.96-7.44-21.908-2.48-32.242 5.58-10.335 8.059-39.063 45.675-39.063 45.675z" style="fill:#263238;stroke:#263238;stroke-linecap:round;stroke-linejoin:round;stroke-miterlimit:10"/>
  <path d="M136.426 175.535c1.343-4.392 1.292-7.802.465-10.386M72.983 237.365c12.929-7.711 46.183-34.017 54.608-45.555 3.179-4.353 5.456-8.198 7.018-11.581M60.833 238.313s.413 3.72 8.267 1.033" style="fill:none;stroke:#A6A6A6;stroke-linecap:round;stroke-linejoin:round;stroke-miterlimit:10"/>
  <path d="M53.806 181.476s-7.234 11.161-5.58 15.501c1.653 4.34 26.041 31.622 28.521 32.242 2.48.62 31.828-19.221 40.509-28.315 8.68-9.094 7.854-20.254 5.994-22.734s-30.382-22.941-33.895-23.355c-3.514-.413-11.987 1.24-22.115 9.094-10.127 7.854-13.434 17.567-13.434 17.567z" style="fill:#263238;stroke:#263238;stroke-linecap:round;stroke-linejoin:round;stroke-miterlimit:10"/>
  <path d="m67.18 220.74 5.473 6.049M118.804 174.936l8.002 6.341s.288 8.353-13.25 19.587M111.539 169.18l2.771 2.137M76.62 167.176c1.564-2.009 2.604-3.505 2.814-4.094M61.247 176.103s-13.434 14.674-8.68 14.674c3.243 0 14.086-11.544 20.978-19.799" style="fill:none;stroke:#A6A6A6;stroke-linecap:round;stroke-linejoin:round;stroke-miterlimit:10"/>
  <path d="M260.136 226.487s-7.485-.249-9.481 3.243c-1.996 3.493-1.746 6.986.249 9.481 1.996 2.495 9.231 12.475 16.467 17.215 7.235 4.74 14.72 10.978 19.71 6.986s10.229-5.988 7.734-14.471c-2.495-8.483-14.581-14.541-24.949-18.961-7.814-3.332-8.713-2.597-9.73-3.493z" style="fill:#FFFFFF;stroke:#263238;stroke-linecap:round;stroke-linejoin:round;stroke-miterlimit:10"/>
  <path d="m238.805 212.87 13.59-1.045s5.854 11.29 5.854 13.799c0 2.509-2.509 10.663-1.464 13.799 1.045 3.136 11.708 11.29 21.535 12.963s13.172-2.3 13.172-5.227c0-2.927-.209-13.172-7.318-24.462s-13.172-17.771-18.399-25.925-24.044-23.416-30.734-28.852c-6.69-5.436-11.499-8.363-12.754-5.436-1.254 2.927 9.065 10.559 11.641 13.329l2.576 2.77s-4.19.6-5.44-.118-13.167-11.59-15.258-10.126c-2.091 1.464-.836 5.018-.836 5.018s-4.809-.836-6.481 1.045c-1.673 1.882-.209 3.972-.209 3.972s-5.854 0-5.436 2.927c.418 2.927 7.945 7.945 10.872 10.036 2.927 2.091 15.681 10.663 17.98 13.799 2.3 3.134 5.645 7.316 7.109 7.734z" style="fill:#A6A6A6;stroke:#263238;stroke-linecap:round;stroke-linejoin:round;stroke-miterlimit:10"/>
  <path d="M244.241 196.562s9.617-.418 13.172 5.018M254.984 247.526s8.904 15.829 18.55 17.313M256.468 256.183s4.452 7.42 8.162 9.151" style="fill:none;stroke:#263238;stroke-linecap:round;stroke-linejoin:round;stroke-miterlimit:10"/>
  <path d="m168.445 209.659-11.098 9.008s-1.287-2.413-3.86-1.448c-2.573.965 1.93 8.525 4.182 9.973 2.252 1.448 4.182-.804 4.021-2.413-.161-1.609-1.126-3.86-1.126-3.86l8.525-7.077-.644-4.183z" style="fill:#FFFFFF;stroke:#263238;stroke-linecap:round;stroke-linejoin:round;stroke-miterlimit:10"/>
  <path d="m168.445 209.658-7.46 6.056 2.031 3.168 6.073-5.041z" style="fill:#92E3A9;stroke:#263238;stroke-linecap:round;stroke-linejoin:round;stroke-miterlimit:10"/>
  <path d="M278.93 78.023s.84 8.122-3.641 17.924-104.746 101.665-107.826 107.266c-3.081 5.601 4.481 22.126 12.043 28.847 7.562 6.722 15.684 3.921 19.045 1.961 3.361-1.961 73.658-57.414 75.618-64.696 1.96-7.282-1.4-18.204-8.122-23.526-6.722-5.321-14.284-3.641-17.084-1.96-.642.385-5.077 3.987-11.52 9.302l-3.112-3.112c8.783-7.29 14.913-12.351 14.913-12.351s32.488-23.806 41.17-26.046c8.682-2.241 16.524 0 16.524 0L278.93 78.023zm-94.882 152.868c-6.595-3.378-11.581-18.819-11.581-18.819s14.777-12.459 31.41-26.43L219.141 204l3.75-3.119-15.279-18.376 2.95-2.476 15.801 19.004 3.75-3.119-15.815-19.02 1.488-1.248 15.316 18.42 3.75-3.119-.079-.095a6.162 6.162 0 0 0 3.585 1.15 6.238 6.238 0 0 0 4.075-1.523l12.696-11.222 2.246 2.245-54.189 44.4c.002.002-12.544 8.366-19.138 4.989zm68.001-54.115-4.703-4.703 7.318-6.112a3.19 3.19 0 0 1 4.365.263c.602.64.907 1.477.859 2.354a3.172 3.172 0 0 1-1.127 2.265l-6.712 5.933zm-6.959-2.819 4.762 4.761-9.978 8.819c-.949.815-2.355.732-3.138-.117l-13.531-16.238 2.046-2.046 6.345 6.853a7.472 7.472 0 0 0 10.273.658l3.221-2.69zm-26.824-.39 13.913 15.819m17.495-41.815c3.378-2.252 8.203-1.769 13.189 1.769 4.986 3.539 7.56 10.616 8.203 15.12.643 4.504-4.665 9.651-4.665 9.651l-6.749 5.529-2.324-2.323 3.994-3.53a7.031 7.031 0 0 0 2.462-4.999 7.026 7.026 0 0 0-1.913-5.235 7.096 7.096 0 0 0-9.711-.587l-12.796 10.687a3.57 3.57 0 0 1-4.906-.314l-6.949-7.505c11.745-9.814 21.018-17.498 22.165-18.263zm-14.499 7.442c-22.333 18.46-63.792 53.242-63.792 53.242s-1.12-2.241 1.4-5.882c1.734-2.505 37.277-32.189 59.285-50.467l3.107 3.107z" style="fill:#92E3A9;stroke:#263238;stroke-linecap:round;stroke-linejoin:round;stroke-miterlimit:10"/>
  <path d="M205.387 169.292s70.348-67.534 72.906-71.115c2.558-3.581 4.093-11.512 4.093-11.512l5.628 7.674s-2.302 2.814-3.581 4.349c-1.279 1.535-3.07 2.814-3.07 2.814l-75.976 67.79zM271.386 119.665s16.628-10.488 19.186-11.256c2.558-.767 9.209.256 9.209.256l-7.719-6.024-20.676 17.024z" style="fill:#263238"/>
  <path d="M236.954 193.575a2.71 2.71 0 1 1-5.418 0 2.71 2.71 0 0 1 5.418 0zM231.399 197.474a2.71 2.71 0 1 1-5.418 0 2.71 2.71 0 0 1 5.418 0zM223.95 202.665a2.71 2.71 0 1 1-5.418 0 2.71 2.71 0 0 1 5.418 0zM220.124 173.233a2.71 2.71 0 1 1-5.418 0 2.71 2.71 0 0 1 5.418 0zM214.569 177.132a2.71 2.71 0 1 1-5.418 0 2.71 2.71 0 0 1 5.418 0zM207.12 182.324a2.71 2.71 0 1 1-5.418 0 2.71 2.71 0 0 1 5.418 0z" style="fill:#FFFFFF;stroke:#263238;stroke-linecap:round;stroke-linejoin:round;stroke-miterlimit:10"/>
  <path d="M240.687 208.48c-.836-2.718-4.6-7.318-8.154-7.318-3.554 0-5.645 2.718-5.645 2.718s3.763 4.809 5.227 6.481c1.464 1.673 5.436 3.136 6.69 2.509l6.063-1.254M162.976 329.394s14.345-37.842 17.066-57.381c2.721-19.539 2.968-28.938 2.968-28.938s-7.173-17.561-7.173-18.303c0-.742-1.979-27.207-1.979-28.196s7.173-14.345 8.904-14.098l1.731.247h0s6.431-8.904 7.667-9.399c1.237-.495 5.689-1.237 6.678.989.989 2.226.495 9.151.495 10.635s-1.237 10.141-1.237 10.141l1.237 11.13s4.699-8.657 5.689-13.109c.989-4.452 1.237-10.635 3.215-8.904 1.979 1.731 2.721 7.42 1.731 9.893-.989 2.473-2.968 13.356-2.968 13.356s1.979 11.625 1.731 21.518c-.247 9.893-2.721 20.776-2.721 20.776s.742 27.454.495 49.467c-.247 22.013-5.936 46.993-6.431 50.951-.495 3.957-4.452 11.13-4.452 11.13l-32.646-31.905z" style="fill:#A6A6A6;stroke:#263238;stroke-linecap:round;stroke-linejoin:round;stroke-miterlimit:10"/>
  <path d="M184.494 182.725s-4.367 12.281-4.367 13.237 2.047 8.87 2.047 8.87M194.319 173.173s-2.729 9.415-3.821 13.1c-1.092 3.684-1.637 8.733-1.637 10.78 0 2.047.955 7.096.955 7.096" style="fill:none;stroke:#263238;stroke-linecap:round;stroke-linejoin:round;stroke-miterlimit:10"/>
  <path d="M79.754 304.328s-4.74 11.726-.249 20.458c4.491 8.732 14.969 25.698 28.442 32.184 13.473 6.487 51.395 16.217 70.107 15.718 18.712-.499 19.959-6.487 20.209-13.223s-27.195-27.943-31.935-32.683c-4.74-4.74-11.976-1.497-11.976-1.497s.249-4.241-3.742-6.487c-3.992-2.245-25.448-8.233-26.197-8.732-.748-.499-6.237-7.485-14.72-9.481" style="fill:#FFFFFF;stroke:#263238;stroke-linecap:round;stroke-linejoin:round;stroke-miterlimit:10"/>
  <path d="M154.352 325.286s-4.975 5.773-3.116 9.802c1.86 4.029 26.033 33.471 30.372 35.951 4.339 2.479 14.566.93 16.426-5.888 1.86-6.818 0-8.678-.93-10.537s-29.752-30.682-33.161-31.302c-3.409-.621-6.786-1.63-9.591 1.974z" style="fill:#FFFFFF;stroke:#263238;stroke-linecap:round;stroke-linejoin:round;stroke-miterlimit:10"/>
  <path d="M142.127 332.77s.998 14.471 12.974 22.454" style="fill:none;stroke:#263238;stroke-linecap:round;stroke-linejoin:round;stroke-miterlimit:10"/>
</svg>